<?xml version="1.0" standalone="no"?>
<!DOCTYPE svg PUBLIC "-//W3C//DTD SVG 20010904//EN"
 "http://www.w3.org/TR/2001/REC-SVG-20010904/DTD/svg10.dtd">
<svg version="1.0" xmlns="http://www.w3.org/2000/svg"
 width="512.000000pt" height="512.000000pt" viewBox="0 0 512.000000 512.000000"
 preserveAspectRatio="xMidYMid meet">
<g transform="translate(0.000000,512.000000) scale(0.100000,-0.100000)"
fill="#000000" stroke="none">
<path d="M25 5070 c-34 -68 -32 -95 4 -38 50 78 54 88 37 88 -9 0 -27 -22 -41
-50z"/>
<path d="M118 5083 c-45 -69 -98 -170 -98 -186 0 -24 23 -21 47 6 16 17 92
131 137 205 5 9 -2 12 -27 12 -29 0 -38 -6 -59 -37z"/>
<path d="M253 5058 c-63 -80 -94 -125 -182 -271 -67 -112 -71 -121 -71 -179 0
-75 -4 -77 135 91 110 135 216 242 332 334 106 86 105 87 -41 87 l-123 0 -50
-62z"/>
<path d="M709 5084 c-18 -20 -81 -77 -139 -126 -168 -145 -181 -170 -48 -92
114 67 228 153 266 201 18 23 32 44 32 47 0 3 -17 6 -38 6 -31 0 -45 -7 -73
-36z"/>
<path d="M865 5079 c-23 -50 -107 -128 -188 -173 -51 -29 -283 -136 -294 -136
-2 0 -3 7 -3 15 0 8 -4 15 -9 15 -27 0 -331 -282 -331 -307 0 -7 7 -16 16 -20
26 -10 209 88 344 184 69 49 161 110 205 137 142 86 253 185 291 258 29 57 30
68 6 68 -12 0 -25 -14 -37 -41z"/>
<path d="M972 5098 c-10 -40 -72 -152 -99 -181 -20 -20 -24 -30 -15 -39 27
-27 102 61 142 169 25 67 25 73 -1 73 -13 0 -23 -8 -27 -22z"/>
<path d="M1083 5103 c-54 -158 -126 -275 -245 -399 -46 -48 -112 -107 -146
-132 -62 -44 -227 -122 -258 -122 -9 0 -14 -6 -11 -12 2 -9 18 -12 43 -9 188
17 471 258 599 511 27 52 65 154 65 172 0 16 -41 8 -47 -9z"/>
<path d="M1150 5101 c-7 -15 -6 -23 6 -35 8 -9 17 -16 19 -16 10 0 45 45 45
57 0 21 -58 16 -70 -6z"/>
<path d="M1477 5113 c-25 -24 16 -31 47 -8 19 14 18 15 -10 15 -17 0 -34 -3
-37 -7z"/>
<path d="M1559 5058 c-45 -71 -139 -261 -139 -283 0 -27 39 -27 85 -1 54 32
118 125 173 254 l41 92 -60 0 -60 0 -40 -62z"/>
<path d="M1748 5043 c-19 -96 -65 -196 -119 -257 -52 -58 -45 -70 11 -20 47
42 116 176 148 287 l20 67 -22 0 c-20 0 -25 -8 -38 -77z"/>
<path d="M1896 5108 c-67 -229 -151 -360 -273 -422 -60 -30 -68 -39 -48 -56
25 -21 87 4 139 55 81 79 201 288 224 393 10 40 9 42 -14 42 -14 0 -26 -6 -28
-12z"/>
<path d="M1965 4988 c-65 -182 -126 -298 -183 -348 -43 -39 -119 -70 -169 -70
-21 0 -23 -4 -23 -54 0 -110 -41 -174 -172 -272 -53 -39 -131 -91 -173 -114
-70 -38 -96 -63 -83 -76 3 -3 29 5 58 16 29 11 54 19 56 17 2 -2 -32 -18 -75
-35 -79 -33 -96 -48 -81 -71 5 -10 37 -2 131 34 149 55 225 96 333 177 169
127 200 170 208 285 5 66 10 80 72 186 78 135 132 250 175 370 l30 87 -28 0
c-28 0 -30 -5 -76 -132z m-422 -744 c-6 -15 -122 -98 -178 -126 -73 -37 -73
-26 0 19 44 26 102 65 129 86 55 42 58 43 49 21z"/>
<path d="M2258 5086 c-48 -18 -103 -45 -123 -60 -60 -46 -82 -111 -49 -147 14
-15 14 -23 3 -53 -11 -31 -11 -38 6 -56 12 -13 30 -20 54 -20 57 0 83 19 103
74 9 27 27 59 39 72 13 14 100 68 196 122 l172 97 -50 3 c-41 3 -78 -7 -202
-54 -84 -31 -184 -73 -224 -94 -47 -24 -69 -31 -63 -21 21 40 79 73 235 132
l100 38 -55 0 c-38 0 -81 -10 -142 -33z"/>
<path d="M2658 5077 c-37 -23 -90 -54 -118 -70 -82 -44 -32 -69 53 -26 45 23
144 97 166 123 26 31 -31 16 -101 -27z"/>
<path d="M2856 5039 c-99 -94 -128 -136 -128 -186 0 -48 24 -66 76 -60 52 7
92 47 182 184 41 62 79 115 84 118 26 16 4 25 -59 25 l-70 0 -85 -81z"/>
<path d="M3345 5110 c3 -5 13 -10 21 -10 8 0 14 5 14 10 0 6 -9 10 -21 10 -11
0 -17 -4 -14 -10z"/>
<path d="M3423 5072 c-41 -87 -123 -157 -261 -224 -68 -33 -126 -67 -129 -74
-9 -23 24 -61 64 -75 68 -23 132 -17 194 19 110 63 202 172 250 299 36 93 36
103 1 103 -24 0 -31 -7 -55 -64 -29 -66 -99 -146 -152 -173 -23 -13 -18 -4 27
41 59 59 102 123 113 169 6 22 4 27 -11 27 -13 -1 -27 -17 -41 -48z"/>
<path d="M3597 5062 c-40 -127 -96 -223 -176 -302 -110 -109 -157 -131 -295
-140 -61 -4 -120 -12 -131 -18 -34 -18 -67 -59 -63 -79 3 -15 13 -18 73 -17
58 0 88 8 174 42 248 100 362 215 443 447 41 115 42 125 16 125 -19 0 -26 -10
-41 -58z"/>
<path d="M3706 5060 c-58 -61 -63 -75 -33 -94 21 -13 30 -8 152 87 l88 67 -75
0 -75 0 -57 -60z"/>
<path d="M3970 5093 c-117 -70 -216 -162 -334 -313 -73 -94 -84 -130 -38 -130
38 1 105 33 158 77 26 20 78 85 119 147 79 121 135 181 205 220 l45 26 -55 0
c-42 0 -66 -7 -100 -27z"/>
<path d="M4248 5052 c-95 -101 -218 -327 -218 -402 0 -26 3 -30 28 -30 40 0
116 52 192 129 70 73 220 310 220 349 0 21 -4 22 -79 22 l-79 0 -64 -68z"/>
<path d="M4597 5091 c-40 -36 -81 -109 -97 -173 -14 -56 -1 -87 51 -114 30
-15 32 -15 55 7 15 14 34 55 49 105 15 48 41 104 65 138 22 31 40 59 40 61 0
3 -29 5 -65 5 -57 0 -68 -3 -98 -29z"/>
<path d="M4910 5110 c0 -5 9 -10 20 -10 11 0 20 5 20 10 0 6 -9 10 -20 10 -11
0 -20 -4 -20 -10z"/>
<path d="M525 5028 c-155 -120 -235 -191 -296 -262 -104 -123 -63 -104 78 35
76 74 180 170 231 213 50 42 92 79 92 82 0 11 -22 -3 -105 -68z"/>
<path d="M3140 5079 c-51 -31 -90 -70 -90 -91 0 -28 21 -22 88 28 38 28 62 53
62 65 0 25 -17 24 -60 -2z"/>
<path d="M3266 5083 c-9 -22 10 -41 25 -26 13 13 5 43 -10 43 -5 0 -12 -8 -15
-17z"/>
<path d="M4924 4958 c-79 -77 -144 -137 -144 -132 0 5 27 50 60 99 33 50 60
94 60 99 0 24 -69 -59 -138 -164 -55 -84 -105 -144 -183 -220 -62 -61 -127
-136 -154 -179 -60 -92 -127 -246 -123 -280 4 -31 35 -41 44 -14 22 62 89 191
134 259 73 108 173 244 177 240 2 -1 -11 -33 -27 -70 -17 -37 -30 -72 -28 -78
2 -5 29 29 61 76 75 112 112 153 227 246 113 92 181 162 209 219 l21 41 -25 0
c-20 0 -60 -34 -171 -142z"/>
<path d="M1243 5036 c-21 -24 -67 -92 -102 -152 -90 -151 -132 -214 -224 -328
-167 -207 -215 -249 -507 -444 -91 -60 -176 -122 -189 -136 -55 -59 -69 -181
-25 -213 41 -30 70 0 90 91 22 92 58 122 289 237 212 106 306 174 419 305 83
95 208 283 258 385 50 102 110 268 104 285 -3 8 -20 14 -40 14 -28 0 -41 -8
-73 -44z m-94 -287 c-41 -82 -90 -155 -169 -249 -98 -118 -111 -122 -20 -5 59
75 137 192 180 268 43 77 50 66 9 -14z"/>
<path d="M1320 4777 c-68 -133 -141 -271 -162 -306 -36 -60 -42 -91 -19 -91
11 0 264 500 296 583 39 104 3 45 -115 -186z"/>
<path d="M3194 4989 c-10 -12 -36 -32 -56 -45 -37 -23 -49 -44 -28 -44 17 0
69 42 96 77 28 36 18 45 -12 12z"/>
<path d="M4455 4968 c-55 -65 -89 -141 -82 -184 12 -74 71 -124 145 -124 37 0
49 6 92 46 52 49 86 107 95 164 6 35 6 35 -12 -7 -27 -63 -78 -130 -113 -148
-46 -24 -104 -23 -137 1 -60 44 -52 139 18 239 21 30 37 55 34 55 -2 0 -20
-19 -40 -42z"/>
<path d="M3998 4945 c-14 -27 -33 -75 -42 -105 -14 -47 -14 -56 -2 -68 8 -8
19 -11 25 -8 16 10 14 46 -3 46 -10 0 -4 22 21 80 39 91 40 132 1 55z"/>
<path d="M5069 4947 c-26 -23 -77 -69 -114 -102 -38 -33 -119 -116 -181 -185
-115 -127 -295 -352 -288 -359 7 -8 39 27 118 128 136 176 243 273 343 311 31
11 69 30 84 41 37 26 91 137 87 177 l-3 31 -46 -42z"/>
<path d="M2397 4943 c-13 -12 -7 -23 13 -23 11 0 20 7 20 15 0 15 -21 21 -33
8z"/>
<path d="M2580 4916 c-27 -33 18 -72 48 -42 13 13 14 20 6 34 -15 23 -38 26
-54 8z"/>
<path d="M2434 4896 c-8 -32 2 -46 30 -46 30 0 49 23 41 50 -10 31 -63 28 -71
-4z"/>
<path d="M2296 4869 c-30 -24 -35 -69 -10 -93 19 -19 18 -19 53 -1 44 22 55
69 23 98 -24 22 -34 21 -66 -4z"/>
<path d="M3567 4791 c-114 -159 -141 -177 -486 -326 -155 -67 -200 -95 -152
-95 36 0 162 51 245 99 44 27 113 64 151 85 111 57 197 143 290 289 36 56 7
24 -48 -52z"/>
<path d="M764 4822 c-64 -47 -347 -327 -343 -339 2 -7 25 2 61 25 31 20 89 58
130 84 74 48 225 175 240 202 12 21 -8 56 -31 56 -10 0 -36 -13 -57 -28z"/>
<path d="M0 4790 c0 -22 2 -40 5 -40 2 0 12 14 20 30 17 32 13 50 -11 50 -10
0 -14 -12 -14 -40z"/>
<path d="M2509 4791 c-179 -80 -261 -145 -275 -217 -15 -82 35 -75 248 34 106
54 178 96 187 111 15 23 15 24 -9 19 -14 -3 -92 -36 -174 -72 -82 -36 -151
-65 -152 -63 -7 7 64 53 181 118 85 48 120 73 120 86 0 30 -34 26 -126 -16z"/>
<path d="M2930 4776 c-18 -22 -5 -48 22 -44 17 2 23 10 23 28 0 29 -26 38 -45
16z"/>
<path d="M2023 4744 c-7 -20 14 -67 29 -62 26 9 33 36 14 57 -23 25 -35 26
-43 5z"/>
<path d="M1342 4673 c-17 -43 -40 -112 -52 -153 -27 -88 -44 -126 -73 -158
-18 -20 -19 -24 -7 -32 23 -15 29 -12 50 23 19 31 33 72 81 237 12 41 28 94
35 118 22 72 -3 46 -34 -35z"/>
<path d="M5112 4705 c0 -16 2 -22 5 -12 2 9 2 23 0 30 -3 6 -5 -1 -5 -18z"/>
<path d="M2681 4662 c-11 -22 -35 -52 -53 -67 -28 -24 -191 -107 -250 -128
-35 -12 -19 -30 21 -24 101 13 263 128 295 208 22 54 13 62 -13 11z"/>
<path d="M3823 4676 c-23 -20 -28 -32 -27 -69 1 -53 32 -111 61 -115 43 -6
102 90 89 144 -9 34 -41 64 -70 64 -14 0 -38 -11 -53 -24z"/>
<path d="M488 4662 c-39 -28 -53 -48 -39 -56 4 -3 27 15 51 39 50 50 44 58
-12 17z"/>
<path d="M4306 4674 c-9 -8 -16 -29 -16 -45 0 -63 101 -61 108 3 6 49 -57 78
-92 42z"/>
<path d="M4997 4684 c-4 -4 -7 -16 -7 -26 0 -14 6 -19 23 -16 14 2 22 10 22
23 0 20 -25 32 -38 19z"/>
<path d="M2091 4646 c-16 -19 -6 -36 20 -36 15 0 20 6 17 22 -4 27 -21 33 -37
14z"/>
<path d="M2742 4614 c-55 -112 -142 -183 -269 -218 -87 -24 -116 -53 -42 -42
70 10 202 80 244 129 39 45 98 152 93 168 -2 6 -14 -11 -26 -37z"/>
<path d="M5015 4618 c-48 -26 -66 -80 -49 -145 5 -18 10 -21 25 -13 28 16 112
138 105 155 -6 18 -52 19 -81 3z"/>
<path d="M4835 4594 c-62 -41 -90 -70 -195 -199 -54 -66 -125 -151 -160 -190
-84 -94 -89 -105 -51 -105 16 0 42 5 57 11 21 7 34 7 51 -2 21 -11 27 -9 64
27 52 49 101 121 175 254 32 58 75 131 96 162 21 31 38 59 38 62 0 14 -39 4
-75 -20z"/>
<path d="M4065 4544 c-106 -86 -311 -290 -391 -389 -71 -87 -164 -221 -164
-236 0 -27 35 -1 77 59 132 187 399 485 532 596 25 20 40 36 35 35 -5 0 -45
-29 -89 -65z"/>
<path d="M2770 4491 c-112 -110 -125 -132 -89 -154 12 -8 24 -4 49 13 39 28
190 215 190 236 0 36 -46 7 -150 -95z"/>
<path d="M1982 4564 c-24 -17 -30 -62 -10 -82 7 -7 24 -12 38 -12 35 0 50 17
50 57 0 22 -6 36 -19 43 -26 13 -33 13 -59 -6z"/>
<path d="M348 4559 c-18 -10 -25 -49 -10 -49 5 0 17 9 27 20 22 24 9 44 -17
29z"/>
<path d="M1357 4542 c-37 -40 -14 -102 37 -102 39 0 66 26 66 63 0 52 -68 78
-103 39z"/>
<path d="M3626 4536 c-13 -15 -26 -44 -29 -65 -3 -22 -12 -54 -21 -72 -9 -18
-14 -35 -11 -37 9 -9 75 60 102 105 42 72 11 124 -41 69z"/>
<path d="M762 4538 c-17 -17 -15 -45 3 -52 23 -9 47 22 35 45 -12 22 -21 24
-38 7z"/>
<path d="M4094 4497 c-116 -86 -271 -277 -226 -277 5 0 37 37 73 82 35 46 98
118 140 160 42 43 75 78 74 78 -2 0 -29 -20 -61 -43z"/>
<path d="M1836 4503 c-4 -16 -9 -37 -13 -48 -3 -14 -2 -17 5 -10 11 11 28 85
19 85 -3 0 -8 -12 -11 -27z"/>
<path d="M2130 4504 c0 -10 7 -14 22 -12 32 5 35 28 4 28 -17 0 -26 -5 -26
-16z"/>
<path d="M3333 4499 c-40 -20 -77 -56 -197 -193 -32 -37 -91 -89 -130 -114
-81 -54 -92 -78 -50 -111 52 -41 181 -22 274 40 128 86 259 329 205 382 -22
22 -51 21 -102 -4z"/>
<path d="M4947 4381 c-92 -76 -190 -159 -218 -186 -55 -54 -144 -158 -117
-137 14 11 16 11 11 -7 -9 -34 22 -25 54 15 53 69 129 141 193 184 121 82 273
243 249 264 -2 2 -79 -58 -172 -133z"/>
<path d="M4217 4482 c-34 -37 -12 -87 35 -80 12 2 29 15 37 30 14 24 14 28 -3
47 -24 26 -48 27 -69 3z"/>
<path d="M4866 4468 c-21 -29 -20 -51 2 -71 25 -23 34 -21 65 11 32 33 33 43
9 65 -26 23 -58 21 -76 -5z"/>
<path d="M124 4424 c-88 -52 -126 -94 -122 -132 3 -30 4 -30 96 69 52 54 92
99 90 99 -2 0 -31 -16 -64 -36z"/>
<path d="M1866 4382 c-30 -43 -76 -102 -101 -130 -85 -94 -265 -211 -448 -290
-51 -22 -112 -49 -137 -61 l-45 -21 36 5 c57 8 303 92 372 126 176 89 304 221
361 373 15 38 24 71 22 73 -2 2 -29 -31 -60 -75z"/>
<path d="M3712 4406 c-94 -70 -220 -248 -278 -397 -25 -63 -26 -71 -12 -85 14
-14 19 -10 48 43 71 126 244 395 282 438 22 25 35 45 30 45 -5 0 -37 -20 -70
-44z"/>
<path d="M264 4422 c-15 -10 -34 -47 -34 -66 0 -24 37 -56 64 -56 27 0 66 42
66 71 0 41 -62 74 -96 51z"/>
<path d="M2158 4409 c-136 -71 -105 -259 43 -259 42 0 116 36 135 65 64 98 13
216 -94 215 -27 -1 -63 -9 -84 -21z"/>
<path d="M575 4370 c-7 -33 -1 -50 20 -50 17 0 28 34 20 60 -9 30 -32 24 -40
-10z"/>
<path d="M1319 4318 c-163 -133 -155 -125 -143 -138 25 -25 212 122 253 198
21 39 -5 25 -110 -60z"/>
<path d="M418 4361 c-41 -26 -118 -112 -118 -132 0 -25 27 -13 82 38 35 32 81
72 103 90 l40 32 -31 1 c-17 0 -50 -13 -76 -29z"/>
<path d="M2529 4329 c-29 -29 -23 -79 13 -98 25 -14 29 -14 55 5 35 26 41 66
14 93 -27 27 -55 27 -82 0z"/>
<path d="M3033 4334 c-9 -23 11 -38 26 -20 13 16 7 36 -10 36 -5 0 -12 -7 -16
-16z"/>
<path d="M3450 4293 c-18 -31 -77 -125 -132 -209 -56 -86 -98 -161 -96 -171 2
-12 12 -18 28 -18 20 0 37 18 91 99 85 126 184 318 176 340 -12 30 -35 16 -67
-41z"/>
<path d="M1916 4305 c-15 -19 -50 -58 -79 -86 -29 -29 -42 -47 -31 -41 36 19
160 162 141 162 -3 0 -17 -16 -31 -35z"/>
<path d="M5000 4268 c-168 -89 -263 -168 -236 -195 3 -4 63 21 133 55 71 33
149 70 176 81 l47 20 0 51 c0 27 -1 50 -2 50 -2 0 -55 -28 -118 -62z"/>
<path d="M2850 4282 c-28 -18 -68 -60 -105 -112 -33 -46 -81 -107 -107 -135
-54 -58 -60 -82 -24 -91 36 -9 174 25 202 50 17 14 38 59 65 136 43 127 45
138 26 163 -11 16 -15 16 -57 -11z"/>
<path d="M1110 4270 c-6 -12 -9 -24 -6 -27 10 -10 58 17 53 30 -7 21 -35 19
-47 -3z"/>
<path d="M2404 4279 c-10 -17 13 -36 27 -22 12 12 4 33 -11 33 -5 0 -12 -5
-16 -11z"/>
<path d="M446 4267 c-15 -11 -17 -17 -7 -35 15 -28 37 -28 51 -1 9 15 8 24 -1
35 -14 17 -20 18 -43 1z"/>
<path d="M942 4215 c-40 -30 -125 -84 -190 -121 -121 -69 -253 -156 -272 -179
-20 -24 31 -4 75 29 39 30 78 54 275 169 91 53 200 139 190 150 -3 3 -38 -19
-78 -48z"/>
<path d="M75 4243 c-73 -38 -75 -44 -75 -185 0 -146 0 -146 73 -97 59 39 129
117 157 173 18 37 19 48 8 71 -23 52 -102 70 -163 38z"/>
<path d="M4026 4228 c-9 -12 -16 -28 -16 -34 0 -13 47 -54 61 -54 16 0 49 40
49 59 0 48 -67 68 -94 29z"/>
<path d="M386 4231 c-3 -5 1 -11 9 -15 15 -6 29 7 18 18 -9 9 -21 8 -27 -3z"/>
<path d="M2363 4180 c-55 -26 -139 -71 -187 -99 -123 -73 -268 -144 -356 -175
-110 -39 -111 -39 -40 -46 108 -10 162 4 318 80 79 39 165 85 190 102 80 55
197 150 200 163 7 28 -30 21 -125 -25z"/>
<path d="M1928 4194 c-16 -8 -28 -23 -28 -34 0 -16 -44 -42 -217 -127 -223
-109 -284 -157 -81 -62 104 48 170 83 348 184 90 51 104 67 33 38 -7 -3 -13 0
-13 6 0 14 -9 13 -42 -5z"/>
<path d="M291 4160 c-42 -41 -53 -76 -27 -86 19 -7 48 9 97 53 32 29 37 38 28
54 -16 31 -53 23 -98 -21z"/>
<path d="M989 4152 c-77 -46 -257 -171 -265 -183 -16 -27 85 2 185 52 148 75
185 111 149 147 -16 16 -16 16 -69 -16z"/>
<path d="M3762 4158 c-20 -20 -14 -40 11 -36 14 2 22 10 22 22 0 24 -16 31
-33 14z"/>
<path d="M2550 4150 c0 -13 30 -13 50 0 11 7 7 10 -17 10 -18 0 -33 -4 -33
-10z"/>
<path d="M5013 4113 c-42 -14 -58 -33 -28 -33 20 0 85 32 85 42 0 10 -6 9 -57
-9z"/>
<path d="M2015 4106 c-45 -31 -335 -171 -400 -193 -65 -22 -67 -23 -25 -19
131 15 465 159 465 200 0 25 -15 30 -40 12z"/>
<path d="M4210 4106 c-18 -22 -5 -48 22 -44 17 2 23 10 23 28 0 29 -26 38 -45
16z"/>
<path d="M1105 4091 c-30 -30 -190 -115 -250 -133 -78 -23 -103 -38 -64 -38
41 0 127 29 214 72 89 43 135 82 119 98 -6 6 -14 6 -19 1z"/>
<path d="M3757 4062 c-81 -44 -161 -112 -183 -154 -26 -50 -8 -43 49 18 32 34
89 79 136 107 44 26 83 52 86 58 12 19 -22 8 -88 -29z"/>
<path d="M2490 4060 c0 -23 25 -27 33 -6 7 16 -1 26 -20 26 -7 0 -13 -9 -13
-20z"/>
<path d="M4020 4047 c-243 -108 -360 -179 -360 -218 0 -28 14 -24 73 20 61 45
179 112 309 176 106 52 110 55 77 55 -13 0 -58 -15 -99 -33z"/>
<path d="M2352 4030 c-54 -42 -73 -64 -48 -54 30 11 16 -14 -26 -50 -23 -20
-45 -36 -50 -36 -4 0 -8 -5 -8 -11 0 -19 60 25 119 86 97 101 104 138 13 65z"/>
<path d="M4303 4058 c-6 -7 -13 -30 -16 -50 -9 -56 -37 -108 -70 -128 -17 -10
-83 -37 -148 -61 -66 -23 -119 -44 -119 -47 0 -8 171 7 212 20 46 14 103 60
125 101 21 40 51 149 45 165 -5 15 -17 15 -29 0z"/>
<path d="M4805 4040 c-10 -11 -13 -20 -8 -20 13 0 38 29 31 35 -3 3 -13 -4
-23 -15z"/>
<path d="M4885 4040 c-10 -11 -15 -20 -11 -20 10 0 66 30 66 35 0 13 -39 2
-55 -15z"/>
<path d="M4960 4011 c-63 -21 -161 -57 -218 -80 -56 -22 -107 -41 -112 -41
-23 0 -6 23 50 67 57 44 71 65 51 77 -5 3 -37 -13 -72 -36 -65 -41 -414 -311
-424 -327 -9 -16 6 -41 25 -41 10 0 86 33 170 74 143 71 486 193 638 227 28 7
52 16 52 21 0 4 -3 8 -7 8 -13 0 -287 -71 -296 -77 -5 -3 -8 0 -5 8 5 16 115
62 223 93 65 19 81 28 83 45 5 30 -22 27 -158 -18z"/>
<path d="M4120 4021 c-98 -32 -370 -179 -422 -229 -30 -28 -36 -52 -15 -52 31
0 141 45 301 124 94 46 179 86 189 90 24 8 41 54 26 72 -14 17 -11 17 -79 -5z"/>
<path d="M4400 3996 c-6 -8 -10 -25 -8 -38 2 -18 10 -24 35 -26 27 -3 35 1 44
22 9 20 9 29 -1 41 -16 19 -54 19 -70 1z"/>
<path d="M2411 3954 c-25 -32 -26 -43 -5 -72 32 -46 114 -17 114 40 0 26 -36
58 -64 58 -15 0 -33 -11 -45 -26z"/>
<path d="M981 3946 c-10 -11 -10 -20 -1 -37 l12 -21 20 20 c22 22 19 52 -5 52
-8 0 -20 -6 -26 -14z"/>
<path d="M2892 3919 c-39 -5 -100 -16 -135 -25 -76 -19 -217 -84 -237 -109
-14 -17 -13 -18 31 -11 99 15 453 132 443 147 -3 5 -11 8 -17 8 -7 -1 -45 -5
-85 -10z"/>
<path d="M645 3900 c-13 -41 43 -70 64 -33 13 25 -5 53 -34 53 -15 0 -26 -7
-30 -20z"/>
<path d="M542 3898 c-32 -32 0 -84 37 -61 24 15 21 67 -4 71 -11 1 -26 -3 -33
-10z"/>
<path d="M69 3863 c-51 -56 -69 -86 -69 -117 l0 -31 26 45 c14 25 36 64 50 88
29 49 27 52 -7 15z"/>
<path d="M421 3876 c-21 -25 -4 -58 27 -54 23 2 27 8 27 33 0 23 -5 31 -21 33
-11 2 -26 -4 -33 -12z"/>
<path d="M4337 3860 c-10 -16 -47 -49 -83 -72 -44 -29 -60 -44 -48 -46 24 -5
93 47 128 96 16 23 27 44 25 47 -3 2 -13 -9 -22 -25z"/>
<path d="M1282 3860 c-75 -18 -114 -37 -52 -26 68 13 170 38 170 42 0 8 -46 2
-118 -16z"/>
<path d="M5030 3861 c-62 -17 -115 -39 -108 -46 1 -2 46 5 98 16 52 10 96 19
98 19 1 0 2 7 2 15 0 18 -7 18 -90 -4z"/>
<path d="M880 3834 c-30 -8 -95 -28 -145 -44 -49 -16 -139 -41 -200 -56 -168
-41 -250 -83 -447 -232 -66 -49 -88 -71 -88 -89 0 -13 2 -23 6 -23 3 0 35 24
72 54 37 30 125 91 197 135 114 72 147 87 275 127 339 106 443 142 415 142
-16 0 -55 -6 -85 -14z"/>
<path d="M1900 3823 c0 -12 33 -23 72 -23 16 0 70 -13 120 -30 55 -17 96 -26
102 -20 18 18 -4 39 -56 55 -64 20 -238 33 -238 18z"/>
<path d="M1388 3799 c-85 -12 -206 -66 -257 -114 -62 -59 -49 -74 21 -24 32
22 95 54 140 71 74 27 99 31 223 35 281 10 387 -22 557 -170 144 -124 162
-128 355 -66 182 58 236 69 337 69 77 0 87 2 76 15 -40 49 -142 37 -395 -46
-82 -27 -164 -49 -182 -49 -52 0 -93 22 -174 92 -167 144 -234 176 -402 188
-144 11 -221 11 -299 -1z"/>
<path d="M2250 3771 c0 -40 10 -54 47 -65 30 -10 87 19 102 50 24 54 -20 61
-51 7 l-22 -36 -18 41 c-12 30 -23 42 -38 42 -17 0 -20 -6 -20 -39z"/>
<path d="M2835 3794 c-27 -9 -30 -12 -10 -8 17 4 68 10 115 14 l85 7 -75 1
c-41 0 -93 -6 -115 -14z"/>
<path d="M555 3786 c-27 -7 -79 -19 -115 -27 -36 -7 -56 -15 -45 -16 11 -2 72
10 135 26 63 16 106 29 95 29 -11 0 -42 -5 -70 -12z"/>
<path d="M5012 3780 c-60 -17 -103 -40 -74 -40 29 0 182 43 182 51 0 13 -38
10 -108 -11z"/>
<path d="M1007 3784 c-4 -4 -7 -16 -7 -26 0 -14 6 -19 23 -16 14 2 22 10 22
23 0 20 -25 32 -38 19z"/>
<path d="M3472 3773 c2 -11 20 -23 45 -31 25 -8 53 -27 68 -45 14 -18 36 -44
48 -60 27 -34 116 -61 255 -77 151 -18 201 -48 252 -153 26 -54 36 -62 59 -48
10 7 5 23 -27 77 -22 38 -51 79 -64 91 -36 34 -107 60 -183 68 -63 6 -110 15
-227 46 -29 7 -48 23 -77 63 -27 36 -53 58 -81 70 -53 21 -72 21 -68 -1z"/>
<path d="M82 3768 c-19 -19 -14 -56 8 -68 23 -12 54 0 64 26 8 21 8 20 -10 38
-18 19 -45 21 -62 4z"/>
<path d="M4682 3765 c-29 -8 -76 -25 -105 -37 -93 -40 -312 -159 -329 -180
-10 -11 -18 -36 -18 -55 0 -36 33 -103 51 -103 5 0 9 27 9 59 0 60 7 71 48 71
9 0 94 39 189 87 135 68 182 87 225 91 41 3 57 0 67 -12 17 -21 -6 -56 -121
-181 -77 -83 -246 -285 -261 -312 -10 -16 2 -43 19 -43 25 0 93 39 188 107
133 97 190 147 232 208 20 30 40 55 44 55 12 0 40 70 40 101 0 44 -35 104 -75
129 -46 28 -133 35 -203 15z m164 -191 c-11 -42 -53 -90 -145 -168 -127 -106
-130 -107 -102 -68 24 35 240 262 248 262 3 0 2 -12 -1 -26z"/>
<path d="M1995 3751 c-6 -11 10 -16 83 -26 54 -7 48 11 -6 20 -20 4 -44 9 -54
11 -9 3 -19 0 -23 -5z"/>
<path d="M758 3729 c-64 -15 -191 -67 -241 -99 -45 -28 -74 -71 -61 -91 9 -15
53 -10 96 12 56 28 270 190 248 188 -3 -1 -22 -5 -42 -10z"/>
<path d="M2435 3730 c-11 -18 6 -50 25 -50 21 0 40 28 33 48 -6 14 -49 16 -58
2z"/>
<path d="M3772 3712 c-35 -14 -60 -28 -54 -30 11 -3 122 44 122 52 0 8 5 9
-68 -22z"/>
<path d="M5080 3705 c-18 -19 -29 -35 -23 -35 19 0 66 45 62 59 -3 7 -18 -2
-39 -24z"/>
<path d="M3920 3701 c0 -12 129 -22 184 -15 83 12 48 24 -69 24 -63 0 -115 -4
-115 -9z"/>
<path d="M1725 3664 c-32 -34 -32 -68 0 -99 51 -52 135 -17 135 55 0 29 -6 43
-22 54 -35 25 -85 20 -113 -10z"/>
<path d="M4701 3648 c-56 -44 -234 -250 -263 -304 -16 -32 -20 -46 -12 -54 9
-9 27 10 69 70 32 45 96 123 143 173 138 148 138 147 120 147 -8 0 -34 -15
-57 -32z"/>
<path d="M177 3658 c-11 -9 -14 -18 -8 -27 8 -12 12 -12 25 -2 17 14 22 41 8
41 -5 0 -16 -6 -25 -12z"/>
<path d="M813 3650 c-47 -21 -48 -22 -33 -51 14 -25 31 -24 90 6 31 16 66 25
95 25 50 0 58 11 20 28 -39 18 -125 14 -172 -8z"/>
<path d="M37 3609 c-30 -25 -37 -37 -37 -66 l0 -35 35 31 c20 17 49 46 66 66
l31 35 -29 0 c-17 0 -43 -12 -66 -31z"/>
<path d="M5063 3586 c-77 -84 -168 -227 -151 -237 26 -17 25 -18 146 119 62
70 63 73 60 124 l-3 51 -52 -57z"/>
<path d="M4961 3555 c-32 -73 -35 -112 -5 -70 17 23 47 120 42 135 -2 6 -18
-24 -37 -65z"/>
<path d="M2305 3610 c-4 -6 13 -10 45 -10 32 0 49 4 45 10 -3 6 -24 10 -45 10
-21 0 -42 -4 -45 -10z"/>
<path d="M390 3595 c-11 -13 -10 -14 4 -9 9 3 16 10 16 15 0 13 -6 11 -20 -6z"/>
<path d="M1093 3554 c-65 -70 -82 -136 -35 -142 36 -5 65 20 96 86 24 51 27
64 16 77 -20 24 -40 18 -77 -21z"/>
<path d="M287 3535 c-141 -80 -293 -193 -286 -212 2 -6 42 20 89 57 47 38 127
95 178 127 79 49 114 74 100 73 -2 0 -38 -21 -81 -45z"/>
<path d="M673 3560 c-32 -19 -39 -30 -27 -43 10 -10 39 9 58 38 20 30 12 32
-31 5z"/>
<path d="M875 3567 c-53 -14 -139 -100 -156 -155 -9 -33 -9 -47 1 -72 9 -23
11 -81 6 -243 -7 -208 -7 -214 19 -307 14 -52 28 -105 32 -118 3 -14 -1 -30
-11 -41 -16 -18 -15 -23 18 -90 20 -39 41 -71 46 -71 22 0 10 122 -21 212 -25
73 -32 114 -39 225 -19 307 29 465 162 534 44 23 78 64 78 95 0 42 -51 54
-135 31z"/>
<path d="M3073 3529 c218 -150 242 -159 280 -107 43 57 -15 114 -86 85 -34
-15 -38 -14 -119 24 -46 21 -99 42 -118 45 -31 6 -26 1 43 -47z"/>
<path d="M717 3522 c-20 -20 -52 -64 -71 -96 -41 -68 -45 -108 -17 -171 l18
-39 11 47 c10 36 10 51 0 66 -15 24 1 64 57 140 54 74 57 79 47 85 -5 3 -25
-12 -45 -32z"/>
<path d="M260 3439 c-58 -43 -106 -88 -108 -98 -4 -26 28 -36 48 -14 9 10 54
57 100 106 46 48 79 87 74 87 -5 -1 -56 -37 -114 -81z"/>
<path d="M4406 3455 c-15 -23 -15 -26 -1 -31 34 -13 73 29 44 47 -21 13 -25
11 -43 -16z"/>
<path d="M425 3451 c-52 -13 -75 -31 -109 -84 -44 -69 -157 -294 -202 -404
-20 -49 -39 -90 -41 -93 -3 -3 -3 19 1 48 8 59 56 202 93 275 21 43 22 48 6
45 -44 -8 -107 -172 -138 -358 -8 -52 -20 -104 -26 -115 -5 -11 -9 -52 -7 -90
l3 -70 13 45 c15 49 103 229 132 270 10 14 40 48 66 75 27 28 72 77 100 110
32 37 75 73 113 95 91 51 129 86 137 125 14 76 -62 144 -141 126z"/>
<path d="M4340 3400 c-11 -11 -20 -24 -20 -29 0 -15 28 -33 47 -29 17 3 18 9
11 66 -2 17 -15 15 -38 -8z"/>
<path d="M5070 3386 c-20 -26 -8 -61 23 -64 26 -3 27 -1 27 37 0 33 -3 41 -19
41 -10 0 -24 -7 -31 -14z"/>
<path d="M2688 3369 c-28 -11 -49 -63 -32 -79 5 -4 51 -10 102 -14 75 -5 92
-3 92 8 0 15 49 36 84 36 21 1 21 1 -2 20 -13 11 -40 24 -60 30 -46 12 -148
12 -184 -1z"/>
<path d="M1108 3360 c-31 -19 -38 -75 -27 -208 5 -68 7 -235 5 -372 -5 -240
-5 -249 15 -274 18 -23 23 -25 37 -14 13 12 14 56 9 395 -8 448 -22 405 131
401 92 -3 97 -4 94 -24 -3 -20 3 -21 100 -26 57 -3 119 -12 138 -20 45 -19 96
-77 110 -125 52 -187 30 -367 -55 -442 -38 -33 -129 -58 -150 -41 -10 9 -12
66 -8 269 l6 257 -28 22 c-39 31 -103 31 -110 0 -3 -13 -4 -144 -3 -293 l3
-270 89 -3 c153 -5 233 34 287 141 37 70 49 136 49 259 0 147 -19 204 -93 284
-43 46 -62 58 -107 71 -70 18 -466 29 -492 13z"/>
<path d="M71 3317 c-63 -102 -71 -134 -69 -277 l1 -135 7 120 c8 134 13 153
71 236 25 34 39 65 36 74 -10 23 -23 18 -46 -18z"/>
<path d="M3598 3333 c29 -2 74 -2 100 0 26 2 2 3 -53 3 -55 0 -76 -1 -47 -3z"/>
<path d="M3518 3323 c7 -3 16 -2 19 1 4 3 -2 6 -13 5 -11 0 -14 -3 -6 -6z"/>
<path d="M3758 3323 c7 -3 16 -2 19 1 4 3 -2 6 -13 5 -11 0 -14 -3 -6 -6z"/>
<path d="M1762 3291 c151 -96 182 -325 73 -542 -46 -90 -103 -151 -172 -185
-51 -25 -67 -28 -209 -32 -85 -3 -155 -3 -156 -1 -1 2 -5 162 -8 354 l-5 350
-36 3 c-22 2 -40 -2 -48 -11 -9 -11 -11 -106 -9 -376 l3 -361 28 -27 c27 -28
28 -28 183 -31 221 -5 296 16 398 109 106 97 150 226 144 424 -3 103 -7 128
-29 175 -34 73 -71 115 -133 150 -66 38 -84 39 -24 1z"/>
<path d="M3199 3299 c-7 -15 -8 -24 0 -32 14 -14 41 9 41 34 0 26 -27 24 -41
-2z"/>
<path d="M3250 3261 c-78 -84 -118 -161 -130 -253 -5 -40 -9 -80 -9 -88 0 -32
16 14 23 64 11 89 64 183 159 282 27 29 35 44 27 49 -8 5 -34 -15 -70 -54z"/>
<path d="M4880 3283 c-84 -56 -212 -167 -264 -229 -34 -39 -80 -109 -103 -155
-48 -97 -90 -246 -74 -262 14 -14 26 -2 46 46 10 24 12 36 4 32 -17 -11 -4 27
51 141 59 122 153 228 268 304 42 27 89 59 105 70 30 24 36 55 11 64 -20 8
-16 9 -44 -11z"/>
<path d="M2865 3281 c-3 -5 9 -19 26 -32 39 -27 89 -131 88 -179 l-1 -35 -10
42 c-12 56 -63 99 -132 111 -28 5 -54 7 -57 6 -3 -2 -4 -182 -3 -401 l2 -398
119 0 c115 0 121 1 155 27 77 59 108 178 69 263 -22 49 -51 76 -119 113 l-53
29 40 18 c52 23 87 61 106 114 29 82 11 167 -51 239 -50 59 -161 111 -179 83z
m36 -200 c20 -21 29 -39 29 -63 0 -38 -30 -92 -59 -108 -18 -9 -19 -14 -9 -30
10 -15 9 -22 -6 -38 -9 -11 -26 -22 -37 -25 -18 -5 -19 1 -19 144 l0 149 36 0
c26 0 43 -8 65 -29z m2 -355 c54 -23 80 -59 84 -118 5 -61 -20 -112 -63 -128
-35 -14 -98 -12 -112 2 -8 8 -12 53 -12 135 l0 123 35 0 c20 0 50 -6 68 -14z
m158 -183 c-12 -44 -42 -76 -86 -93 -29 -11 -29 -10 12 32 44 45 62 82 64 126
l1 27 9 -27 c7 -18 7 -40 0 -65z"/>
<path d="M4740 3274 c-11 -12 -11 -18 1 -30 13 -12 18 -12 34 -1 11 9 16 20
12 31 -8 20 -31 21 -47 0z"/>
<path d="M3545 3266 c-148 -36 -274 -156 -325 -312 -23 -67 -53 -114 -74 -114
-10 0 -11 -14 -4 -62 16 -126 127 -296 217 -335 32 -14 35 -13 60 11 15 14 32
26 39 26 7 0 12 5 12 10 0 6 10 10 23 10 13 0 31 6 41 13 16 11 14 15 -23 35
-188 106 -228 392 -75 545 56 56 117 80 199 81 105 0 175 -46 175 -115 0 -51
-35 -78 -114 -88 -47 -6 -51 -9 -48 -31 4 -42 27 -50 121 -44 199 14 240 28
275 99 17 34 18 45 8 94 -12 58 -57 134 -82 138 -8 2 -21 -1 -28 -6 -11 -7 -7
-18 17 -52 26 -34 30 -49 25 -73 -9 -41 -22 -56 -50 -56 -17 0 -25 7 -30 24
-8 32 2 46 31 46 39 0 37 16 -4 53 -110 99 -249 136 -386 103z m-161 -745 c-8
-9 -79 46 -109 86 -55 72 -41 68 39 -10 40 -40 72 -74 70 -76z"/>
<path d="M5096 3249 c-16 -23 -12 -44 10 -53 11 -4 14 4 14 34 0 46 -3 48 -24
19z"/>
<path d="M4358 3197 c3 -34 -4 -91 -17 -153 -12 -55 -26 -152 -31 -217 -11
-132 -22 -166 -71 -222 -29 -32 -34 -48 -40 -105 -3 -37 -16 -88 -28 -113 -33
-69 -104 -142 -167 -173 -72 -35 -84 -48 -84 -90 0 -43 21 -86 56 -113 42 -33
49 -24 10 13 -26 24 -36 42 -36 63 0 34 17 51 79 83 115 58 208 191 218 314 5
52 11 67 41 100 65 73 70 93 102 429 10 101 3 163 -24 214 -12 23 -12 21 -8
-30z"/>
<path d="M2000 3222 c1 -41 15 -47 142 -53 109 -5 130 -9 183 -35 45 -22 68
-41 92 -77 44 -66 56 -115 56 -227 -1 -72 2 -89 9 -70 5 14 8 66 6 115 -5 102
-29 165 -83 220 -18 17 -40 44 -50 59 -10 15 -39 39 -64 54 -43 25 -55 27
-168 29 -110 2 -123 0 -123 -15z"/>
<path d="M4625 3183 c-73 -53 -172 -149 -178 -173 -7 -28 7 -42 37 -34 38 9
52 40 30 65 -17 18 -16 20 6 44 13 14 31 25 39 25 25 1 141 79 141 95 0 27
-15 22 -75 -22z"/>
<path d="M2587 3193 c-4 -3 -7 -165 -7 -360 l0 -353 65 0 65 0 0 360 0 360
-58 0 c-32 0 -62 -3 -65 -7z"/>
<path d="M880 3170 c-25 -25 -26 -72 -2 -93 23 -21 71 -22 100 -1 28 19 30 74
4 97 -25 23 -78 21 -102 -3z"/>
<path d="M4892 3159 c-79 -45 -194 -160 -254 -252 -54 -85 -100 -185 -92 -199
11 -18 25 -4 65 68 55 101 147 222 203 268 25 20 71 50 103 67 76 40 83 47 59
65 -25 18 -22 19 -84 -17z"/>
<path d="M470 3111 c-74 -24 -152 -65 -194 -101 -27 -24 -35 -39 -38 -75 l-3
-44 25 24 c40 38 137 92 207 116 53 17 69 19 93 9 39 -16 70 1 70 38 0 16 -5
33 -12 40 -17 17 -84 14 -148 -7z"/>
<path d="M4969 3041 c-74 -49 -155 -108 -179 -131 -45 -41 -45 -41 -15 -35 17
3 93 44 170 90 77 46 148 87 158 91 11 4 17 17 17 40 0 19 -4 34 -8 34 -5 0
-69 -40 -143 -89z"/>
<path d="M2009 3084 c0 -5 0 -100 1 -212 2 -229 11 -285 64 -372 141 -232 445
-177 462 84 l4 61 -18 -52 c-37 -102 -111 -163 -199 -163 -65 0 -135 58 -175
145 -21 45 -23 65 -23 207 0 143 2 159 21 185 44 58 112 32 133 -51 5 -23 13
-96 17 -162 6 -101 4 -125 -10 -152 -17 -34 -41 -40 -77 -22 -26 15 -24 -2 4
-28 69 -65 161 15 188 163 19 102 -10 252 -59 311 -42 50 -68 58 -204 62 -70
3 -128 0 -129 -4z"/>
<path d="M4910 2902 c-112 -56 -219 -117 -238 -135 -37 -35 -68 -87 -53 -87
34 0 423 186 479 228 19 15 23 26 20 58 l-3 39 -205 -103z"/>
<path d="M517 2955 c-122 -45 -251 -134 -396 -272 -75 -72 -92 -94 -89 -114 2
-15 10 -25 23 -27 24 -3 151 72 300 177 58 41 144 95 192 121 75 39 88 50 91
73 7 55 -40 71 -121 42z"/>
<path d="M3607 2836 c-68 -25 -97 -66 -97 -139 0 -46 23 -87 61 -107 17 -10
18 -8 13 34 -5 34 -2 52 10 72 58 87 236 55 204 -37 -5 -16 -22 -38 -36 -49
-25 -21 -35 -24 -104 -35 -46 -7 -48 -18 -6 -36 32 -13 32 -13 8 -20 l-25 -7
25 -1 c36 0 95 23 136 54 25 19 49 54 75 109 50 104 58 141 33 154 -34 17
-255 23 -297 8z"/>
<path d="M5024 2798 c-50 -26 -161 -75 -247 -107 -182 -70 -197 -77 -197 -97
0 -12 7 -14 33 -9 93 19 416 165 481 218 56 45 20 43 -70 -5z"/>
<path d="M880 2815 c-17 -20 -6 -45 20 -45 17 0 21 5 18 27 -4 31 -20 40 -38
18z"/>
<path d="M3958 2755 c-4 -57 -1 -74 14 -94 22 -28 23 -50 4 -76 -13 -18 -14
-18 -25 3 -6 12 -16 22 -22 22 -5 0 -2 -11 7 -25 24 -37 12 -59 -31 -51 -38 8
-75 -9 -75 -35 0 -19 26 -44 60 -57 22 -9 23 -11 8 -17 -11 -4 -36 2 -63 15
-42 20 -50 21 -115 10 -70 -12 -131 -8 -183 12 -24 9 -31 7 -53 -13 -36 -33
-48 -59 -35 -72 34 -34 302 -49 404 -22 156 41 227 114 227 236 0 77 -19 127
-71 183 l-46 51 -5 -70z"/>
<path d="M594 2795 c-8 -21 2 -45 19 -45 8 0 20 7 27 15 10 12 10 18 0 30 -7
8 -19 15 -27 15 -7 0 -16 -7 -19 -15z"/>
<path d="M5065 2728 c-64 -42 -215 -110 -310 -141 l-100 -32 80 -3 80 -3 130
66 c72 36 141 74 155 85 22 17 23 21 10 33 -13 13 -19 12 -45 -5z"/>
<path d="M456 2724 c-19 -18 -20 -28 -6 -55 20 -37 80 -18 80 26 0 42 -44 59
-74 29z"/>
<path d="M846 2710 c3 -14 12 -35 18 -48 10 -19 14 -21 23 -10 9 10 4 21 -18
48 -27 32 -30 33 -23 10z"/>
<path d="M3670 2687 c-49 -25 -34 -87 21 -87 28 0 69 30 69 50 0 14 -38 50
-52 50 -7 0 -24 -6 -38 -13z"/>
<path d="M569 2614 c-162 -79 -310 -190 -360 -270 -17 -28 -19 -37 -9 -50 11
-12 23 -4 81 59 84 92 187 171 303 234 49 26 91 54 94 61 6 19 -9 15 -109 -34z"/>
<path d="M1007 2585 c-8 -88 -1 -124 37 -189 49 -84 128 -132 206 -124 23 2
35 8 35 18 0 11 -16 17 -60 21 -72 7 -96 19 -128 62 -51 67 -70 119 -76 207
l-7 85 -7 -80z"/>
<path d="M2465 2615 c-32 -86 -92 -134 -167 -136 -32 0 -32 -1 -9 -10 50 -20
129 13 165 69 21 32 46 122 33 122 -2 0 -12 -20 -22 -45z"/>
<path d="M5045 2620 c-38 -22 -115 -58 -170 -81 -97 -41 -163 -81 -105 -64 61
18 176 71 252 116 125 75 140 95 23 29z"/>
<path d="M384 2615 c-4 -9 -2 -21 4 -27 16 -16 47 -5 47 17 0 26 -42 34 -51
10z"/>
<path d="M4371 2598 c-19 -49 39 -87 74 -48 15 17 16 24 7 45 -16 34 -69 36
-81 3z"/>
<path d="M711 2584 c0 -11 3 -14 6 -6 3 7 2 16 -1 19 -3 4 -6 -2 -5 -13z"/>
<path d="M5010 2526 c-52 -29 -169 -92 -260 -141 -455 -245 -510 -280 -542
-352 -37 -83 -2 -113 132 -113 72 0 81 2 123 33 245 175 389 266 562 354 l95
48 0 53 c0 30 -3 52 -7 50 -41 -18 -200 -103 -288 -153 -169 -95 -286 -160
-325 -179 l-35 -17 25 20 c44 35 330 203 480 281 l145 75 3 48 c2 26 -1 47 -5
46 -4 0 -51 -24 -103 -53z"/>
<path d="M201 2541 c-15 -10 -8 -41 9 -41 15 0 25 29 14 40 -5 5 -15 5 -23 1z"/>
<path d="M605 2520 c-10 -11 -15 -23 -12 -26 10 -10 35 3 47 25 15 28 -10 29
-35 1z"/>
<path d="M704 2512 c-7 -17 -27 -40 -45 -51 -33 -20 -33 -21 -8 -21 35 0 71
40 67 75 l-3 28 -11 -31z"/>
<path d="M3593 2513 c9 -2 23 -2 30 0 6 3 -1 5 -18 5 -16 0 -22 -2 -12 -5z"/>
<path d="M4457 2466 c-55 -64 -59 -89 -18 -105 36 -16 99 0 138 33 51 44 24
126 -42 126 -25 0 -40 -10 -78 -54z"/>
<path d="M495 2469 c-10 -15 3 -25 16 -12 7 7 7 13 1 17 -6 3 -14 1 -17 -5z"/>
<path d="M4395 2470 c-3 -5 -1 -10 4 -10 6 0 11 5 11 10 0 6 -2 10 -4 10 -3 0
-8 -4 -11 -10z"/>
<path d="M4338 2464 c-5 -4 -8 -18 -8 -30 0 -13 -9 -46 -20 -74 -24 -61 -25
-70 -5 -70 23 0 46 68 43 128 -2 30 -6 50 -10 46z"/>
<path d="M20 2398 c-17 -29 -20 -51 -20 -164 l0 -131 43 -39 c24 -22 80 -67
125 -101 45 -34 88 -77 97 -94 16 -29 16 -32 -4 -53 -40 -43 -21 -116 30 -116
23 0 44 13 85 52 52 49 55 54 49 88 -9 49 -16 52 -57 30 l-37 -19 6 33 c7 45
-16 86 -79 138 -108 89 -146 134 -164 193 -17 61 -13 111 13 156 23 38 11 59
-32 59 -29 0 -39 -6 -55 -32z"/>
<path d="M513 2404 c-4 -11 1 -22 13 -31 16 -12 20 -12 31 3 6 9 9 22 6 30 -7
19 -42 18 -50 -2z"/>
<path d="M3345 2399 c-206 -108 -230 -398 -57 -663 29 -43 52 -90 52 -103 0
-16 -12 -35 -31 -51 -82 -69 -94 -81 -87 -87 12 -12 232 63 274 93 51 37 100
110 121 182 24 78 23 219 -1 292 l-19 58 27 21 c38 30 35 72 -8 115 -24 24
-43 34 -65 34 -17 0 -31 -4 -31 -8 0 -5 16 -27 36 -50 34 -40 40 -72 14 -72
-16 0 -100 88 -100 105 0 20 -13 19 -59 -5 -47 -24 -97 -85 -121 -147 l-17
-46 -12 36 c-19 57 1 112 60 170 27 26 49 55 49 65 0 9 7 26 15 36 16 21 20
46 7 46 -4 0 -25 -9 -47 -21z m124 -220 c68 -68 68 -105 -1 -140 -76 -38 -97
-71 -64 -98 11 -9 23 -8 51 4 65 26 67 24 59 -57 -13 -131 -43 -180 -94 -155
-34 16 -77 105 -86 175 -7 55 5 155 27 236 10 36 40 76 58 76 5 0 27 -19 50
-41z"/>
<path d="M950 2404 c0 -17 32 -58 99 -126 61 -63 91 -82 91 -58 0 6 -4 10 -8
10 -11 0 -101 86 -145 139 -20 25 -37 40 -37 35z"/>
<path d="M1926 2389 c-72 -56 13 -160 144 -176 45 -5 51 -3 79 25 23 22 31 40
31 66 0 42 -30 69 -103 91 -71 21 -119 19 -151 -6z"/>
<path d="M1525 2335 c-73 -30 -125 -82 -125 -125 0 -39 14 -38 52 6 49 55 78
66 158 58 95 -9 128 18 80 66 -28 28 -90 26 -165 -5z"/>
<path d="M319 2335 c-51 -28 -79 -154 -41 -187 41 -37 159 -30 197 12 19 21
38 101 28 125 -8 22 -96 65 -130 65 -15 -1 -40 -7 -54 -15z"/>
<path d="M713 2329 c-175 -87 -215 -344 -84 -546 34 -52 95 -113 114 -113 4 0
-5 16 -18 36 -41 60 -49 107 -37 204 13 108 38 178 100 282 61 104 64 111 46
137 -20 27 -66 27 -121 0z"/>
<path d="M2903 2332 c-9 -5 -9 -27 -1 -87 6 -46 8 -192 5 -343 -4 -256 -4
-264 17 -295 24 -35 63 -51 163 -64 72 -10 93 -2 93 33 0 45 -17 64 -59 64
-51 0 -99 18 -111 41 -7 12 -7 78 0 197 6 98 8 239 6 313 -3 74 -6 137 -6 142
0 9 -91 9 -107 -1z"/>
<path d="M4356 2314 c-11 -28 -7 -35 17 -32 29 4 38 48 9 48 -11 0 -23 -7 -26
-16z"/>
<path d="M5045 2253 c-33 -20 -100 -53 -149 -74 -119 -52 -171 -83 -235 -143
-66 -63 -91 -102 -124 -191 -37 -104 -53 -215 -36 -251 10 -20 22 -29 39 -29
28 0 33 12 48 118 12 79 57 181 113 253 36 46 125 129 268 247 25 21 67 49 93
62 44 23 69 45 51 45 -4 0 -35 -16 -68 -37z"/>
<path d="M2462 2243 c-46 -22 -98 -86 -124 -152 -20 -49 -23 -74 -23 -196 1
-118 4 -149 22 -197 44 -119 102 -170 200 -176 56 -4 71 -1 128 27 106 52 163
145 172 280 9 134 -37 271 -119 353 -73 73 -180 99 -256 61z m119 -109 c23
-25 24 -33 31 -207 7 -196 3 -249 -18 -284 -36 -57 -120 2 -151 105 -21 69
-23 245 -4 311 15 52 60 101 93 101 14 0 35 -12 49 -26z m156 -27 c17 -26 37
-73 44 -105 18 -86 1 -245 -31 -292 -9 -13 -13 -11 -31 9 -18 22 -19 32 -12
95 13 120 9 266 -10 309 -23 53 -1 44 40 -16z"/>
<path d="M913 2239 c-27 -10 -55 -50 -101 -146 -29 -62 -37 -90 -37 -137 0
-47 4 -61 20 -72 19 -13 20 -11 21 26 2 54 41 115 118 183 47 42 66 65 66 83
0 24 14 32 25 14 3 -5 15 -15 27 -21 35 -19 11 8 -35 39 -50 34 -75 42 -104
31z"/>
<path d="M4231 2219 c-31 -25 -23 -33 9 -9 14 10 23 21 20 23 -3 3 -16 -3 -29
-14z"/>
<path d="M1727 2223 c-4 -3 -7 -156 -7 -339 0 -307 1 -332 18 -339 9 -4 69
-10 132 -12 104 -5 120 -3 168 17 109 47 136 116 130 343 -3 137 -6 157 -27
197 -29 55 -35 60 -87 60 -50 0 -116 22 -166 55 -29 19 -51 25 -96 25 -32 0
-62 -3 -65 -7z m195 -58 c79 -32 108 -59 108 -100 0 -45 -32 -70 -120 -94 -41
-12 -78 -21 -82 -21 -5 0 -8 54 -8 120 0 140 -2 137 102 95z m94 -256 c27 -28
29 -37 32 -112 5 -133 -35 -175 -156 -162 -75 8 -74 7 -70 155 l3 104 34 23
c23 16 49 23 81 23 39 0 51 -5 76 -31z"/>
<path d="M154 2188 c8 -42 35 -69 126 -131 78 -53 148 -120 228 -219 26 -32
48 -53 50 -48 6 18 -72 135 -128 191 -30 30 -87 74 -126 97 -72 42 -134 101
-134 127 0 8 -5 15 -11 15 -8 0 -9 -11 -5 -32z"/>
<path d="M1224 2206 c-3 -8 -4 -23 -2 -33 5 -25 61 -25 66 0 7 37 -51 67 -64
33z"/>
<path d="M5057 2209 c-22 -13 -22 -58 -1 -66 39 -15 73 46 37 65 -12 7 -25 7
-36 1z"/>
<path d="M1506 2189 c-36 -28 -33 -77 6 -98 25 -14 29 -14 55 5 35 26 41 66
14 93 -26 26 -42 26 -75 0z"/>
<path d="M1055 2128 c-40 -22 -47 -64 -17 -91 38 -35 102 -12 102 36 0 28 -9
41 -37 56 -26 13 -23 13 -48 -1z"/>
<path d="M4044 2099 c-3 -6 -1 -16 5 -22 9 -9 14 -8 21 3 5 8 10 18 10 23 0
11 -28 8 -36 -4z"/>
<path d="M1205 2069 c-4 -6 -4 -13 0 -17 9 -9 105 -9 105 0 0 23 -92 39 -105
17z"/>
<path d="M4091 2067 c-6 -8 -8 -17 -5 -20 9 -8 44 11 44 23 0 15 -26 12 -39
-3z"/>
<path d="M5044 2047 c-27 -19 -69 -59 -93 -90 -37 -48 -45 -66 -49 -112 -4
-53 -3 -56 36 -95 34 -34 46 -40 82 -40 23 0 55 8 71 17 l29 17 0 168 c0 191
2 188 -76 135z"/>
<path d="M4870 2039 c-60 -37 -111 -81 -150 -130 -63 -81 -116 -229 -81 -229
4 0 27 42 50 94 44 96 82 145 190 239 55 49 51 62 -9 26z"/>
<path d="M894 2003 c-3 -10 -18 -44 -35 -76 l-31 -58 54 36 c65 45 69 51 56
86 -11 32 -36 38 -44 12z"/>
<path d="M0 1935 c0 -57 2 -64 18 -58 54 19 70 79 30 107 -41 29 -48 21 -48
-49z"/>
<path d="M4043 1968 c-26 -32 -46 -87 -74 -199 -16 -67 -36 -136 -43 -154 -23
-54 -82 -110 -146 -139 -54 -24 -59 -29 -49 -47 11 -22 27 -20 91 12 102 52
152 131 167 262 11 95 35 197 58 240 15 31 13 46 -4 25z"/>
<path d="M82 1863 c-80 -60 -85 -68 -80 -108 3 -27 4 -27 96 44 93 72 107 92
74 110 -13 7 -33 -3 -90 -46z"/>
<path d="M1090 1907 c-29 -10 -36 -18 -38 -43 -3 -26 4 -37 39 -67 89 -76 305
-116 363 -68 50 42 40 134 -18 170 -30 19 -49 21 -172 20 -80 0 -154 -5 -174
-12z"/>
<path d="M937 1868 c-61 -76 -70 -102 -62 -187 3 -42 9 -84 12 -94 5 -18 6
-17 29 4 l24 22 0 -21 c0 -11 -7 -47 -15 -78 -14 -53 -13 -61 3 -93 28 -58 70
-74 177 -67 173 11 547 45 552 50 3 2 2 9 -1 15 -5 7 -55 8 -149 4 -143 -6
-281 6 -355 30 -69 23 -78 91 -21 163 31 39 37 69 16 77 -20 8 -114 -27 -140
-52 -13 -11 -25 -21 -28 -21 -10 0 -1 138 11 171 13 36 7 103 -10 114 -4 3
-24 -14 -43 -37z"/>
<path d="M4420 1863 c-35 -11 -61 -12 -118 -3 -99 14 -128 13 -169 -7 -52 -24
-73 -65 -73 -144 0 -110 50 -185 135 -203 30 -6 30 -6 -5 12 -46 23 -74 67
-90 141 -16 75 -8 137 20 165 17 18 32 21 93 20 40 -1 89 -8 109 -17 43 -18
78 -68 78 -112 0 -45 -42 -126 -84 -163 -20 -17 -32 -32 -27 -32 23 0 83 66
111 123 36 74 80 212 71 224 -3 6 -25 4 -51 -4z"/>
<path d="M4790 1866 c-27 -33 18 -72 48 -42 13 13 14 20 6 34 -15 23 -38 26
-54 8z"/>
<path d="M114 1761 c-84 -55 -118 -85 -113 -100 4 -11 121 72 179 125 29 27
-8 13 -66 -25z"/>
<path d="M3759 1742 c-46 -38 -17 -122 41 -122 62 0 97 66 60 113 -26 32 -67
36 -101 9z"/>
<path d="M140 1701 c-30 -27 -52 -52 -49 -55 6 -6 56 38 93 82 29 34 16 26
-44 -27z"/>
<path d="M371 1703 c-45 -52 -60 -88 -43 -105 16 -16 83 22 105 60 16 28 17
37 7 62 -7 17 -16 30 -20 30 -5 0 -27 -21 -49 -47z"/>
<path d="M1030 1740 c-8 -5 -11 -12 -8 -16 10 -9 38 3 38 16 0 12 -10 13 -30
0z"/>
<path d="M4755 1740 c-9 -15 14 -40 31 -33 22 8 18 43 -5 43 -11 0 -23 -5 -26
-10z"/>
<path d="M4700 1675 c-19 -23 -8 -50 22 -53 34 -4 50 34 22 55 -23 17 -29 16
-44 -2z"/>
<path d="M174 1628 c-20 -29 -68 -87 -106 -130 -62 -68 -69 -80 -66 -112 l3
-35 64 54 c69 58 176 192 186 233 6 25 -7 42 -32 42 -6 0 -28 -24 -49 -52z"/>
<path d="M532 1643 c-18 -8 -44 -30 -58 -46 -45 -53 -18 -127 45 -127 56 0
131 73 131 128 0 29 -34 62 -62 62 -13 0 -38 -8 -56 -17z"/>
<path d="M1240 1630 c-24 -24 -25 -38 -4 -68 30 -44 94 -18 94 38 0 48 -54 66
-90 30z"/>
<path d="M4915 1636 c-22 -7 -76 -31 -120 -53 -136 -69 -340 -148 -745 -288
-166 -58 -236 -90 -408 -187 -138 -78 -172 -121 -120 -149 46 -25 136 -5 274
58 71 33 201 84 289 113 274 90 428 157 594 258 41 24 122 69 180 99 140 73
172 93 165 104 -12 19 -42 6 -193 -85 -201 -120 -284 -165 -401 -216 -181 -80
-474 -180 -487 -167 -6 6 34 24 307 139 314 131 598 279 692 359 37 31 32 34
-27 15z"/>
<path d="M3632 1634 c-7 -3 -19 -19 -28 -35 -12 -25 -13 -34 -2 -56 27 -55
112 -49 132 10 18 51 -47 103 -102 81z"/>
<path d="M4988 1504 c-113 -63 -118 -67 -118 -98 0 -29 -9 -40 -91 -102 -191
-146 -221 -167 -380 -262 -123 -74 -165 -104 -167 -120 -4 -26 14 -29 46 -6
13 9 25 14 28 12 5 -6 -250 -148 -319 -178 -74 -33 -67 -16 14 36 162 102 176
116 159 145 -8 12 -17 11 -62 -5 -78 -27 -186 -93 -247 -150 -30 -28 -49 -41
-43 -30 19 35 146 148 226 200 80 52 93 68 75 90 -59 71 -323 -132 -436 -336
-58 -104 -63 -130 -32 -161 27 -27 41 -23 209 55 184 86 197 91 213 77 11 -8
36 -1 107 29 142 62 472 230 498 253 30 28 29 72 -2 92 -30 20 -88 8 -199 -41
-44 -19 -81 -33 -84 -31 -2 3 40 32 94 65 113 69 186 126 314 244 93 85 202
165 283 209 38 20 46 29 46 51 0 16 -3 28 -7 28 -5 -1 -61 -30 -125 -66z"/>
<path d="M792 1548 c-25 -25 -7 -68 29 -68 25 0 42 26 35 55 -7 27 -42 35 -64
13z"/>
<path d="M4445 1499 c-77 -26 -243 -77 -370 -113 -251 -71 -294 -86 -316 -112
-13 -16 -12 -16 17 -1 17 9 127 43 245 77 253 73 464 142 534 175 73 34 47 28
-110 -26z"/>
<path d="M220 1525 c-9 -11 -10 -19 -2 -27 14 -14 32 -1 32 23 0 23 -13 25
-30 4z"/>
<path d="M4014 1519 c-9 -15 11 -33 30 -26 9 4 13 13 10 22 -7 17 -30 20 -40
4z"/>
<path d="M4248 1513 c7 -3 16 -2 19 1 4 3 -2 6 -13 5 -11 0 -14 -3 -6 -6z"/>
<path d="M734 1480 c-5 -5 -51 -31 -103 -58 -51 -27 -89 -52 -83 -56 20 -12
216 103 201 118 -3 3 -10 1 -15 -4z"/>
<path d="M2760 1470 c-126 -48 -208 -61 -405 -67 -179 -5 -191 -7 -215 -28
-43 -39 -311 -231 -405 -290 -49 -31 -220 -122 -380 -200 -276 -137 -487 -261
-500 -293 -5 -14 11 -42 25 -42 4 0 43 26 87 57 95 69 177 114 424 231 211
101 282 145 459 281 69 54 172 128 230 166 l105 69 210 1 c191 1 216 3 280 24
39 13 87 32 107 42 50 26 167 25 276 -1 124 -30 187 -27 242 12 30 20 37 28
20 23 -14 -4 -59 -10 -101 -12 -60 -4 -90 0 -145 17 -102 33 -242 37 -314 10z"/>
<path d="M3932 1422 c-75 -26 -131 -50 -129 -56 13 -35 287 55 287 94 0 15
-13 12 -158 -38z"/>
<path d="M1980 1404 c-168 -144 -344 -264 -524 -359 -69 -37 -132 -75 -139
-86 -8 -10 -45 -42 -82 -71 -38 -28 -64 -53 -58 -55 12 -4 55 20 443 250 267
158 489 325 478 359 -11 31 -53 17 -118 -38z"/>
<path d="M154 1394 c-130 -107 -154 -134 -154 -177 l0 -39 129 128 c72 70 128
131 125 136 -11 17 -32 6 -100 -48z"/>
<path d="M3402 1437 c-48 -13 -122 -76 -142 -119 -22 -50 -15 -84 9 -49 34 49
96 113 124 127 70 37 208 38 246 3 11 -10 22 -15 25 -10 3 5 -7 17 -22 27 -30
21 -190 35 -240 21z"/>
<path d="M5010 1376 c-52 -40 -115 -92 -140 -115 l-45 -42 42 21 c23 11 48 20
55 20 15 0 140 81 176 113 21 19 32 78 15 76 -5 0 -51 -33 -103 -73z"/>
<path d="M766 1423 c-31 -31 34 -112 126 -157 137 -68 204 -69 419 -10 203 56
209 58 200 73 -13 20 -153 -1 -294 -45 -144 -45 -169 -45 -216 4 -20 21 -60
48 -88 60 -29 11 -72 34 -96 51 -25 17 -47 27 -51 24z"/>
<path d="M300 1371 c-67 -44 -206 -171 -187 -171 8 0 197 145 251 192 49 43
17 33 -64 -21z"/>
<path d="M4680 1334 c-164 -106 -262 -154 -407 -200 -62 -20 -115 -40 -119
-45 -21 -34 249 42 376 106 72 37 291 193 298 213 7 23 -15 12 -148 -74z"/>
<path d="M1626 1266 c-92 -80 -182 -153 -199 -162 -31 -16 -47 -31 -47 -46 0
-16 27 -7 75 26 38 25 261 215 350 297 5 6 5 13 -2 20 -7 7 -58 -31 -177 -135z"/>
<path d="M2817 1393 c-12 -11 -8 -40 7 -52 28 -23 68 17 45 45 -12 15 -41 19
-52 7z"/>
<path d="M399 1340 c-100 -60 -153 -112 -170 -170 -16 -53 2 -93 43 -98 22 -3
33 7 74 65 26 37 71 102 101 143 49 69 66 110 45 110 -5 0 -47 -23 -93 -50z"/>
<path d="M3451 1368 c-59 -23 -158 -109 -146 -128 5 -7 23 5 52 35 77 81 188
110 246 65 31 -25 50 -26 45 -2 -4 23 -65 52 -108 51 -19 0 -59 -9 -89 -21z"/>
<path d="M3146 1324 c-4 -10 -2 -22 3 -27 14 -14 43 0 39 20 -4 24 -34 28 -42
7z"/>
<path d="M2623 1309 c-104 -52 -143 -199 -60 -234 77 -32 178 60 177 162 -1
42 -13 63 -47 81 -27 15 -21 16 -70 -9z"/>
<path d="M2896 1314 c-8 -20 11 -44 34 -44 20 0 32 23 24 45 -8 20 -50 19 -58
-1z"/>
<path d="M3030 1316 c-18 -23 -8 -61 17 -64 30 -4 61 41 43 63 -16 19 -44 19
-60 1z"/>
<path d="M5042 1244 c-41 -43 -92 -106 -115 -139 -65 -96 -166 -187 -307 -278
-42 -27 -66 -50 -68 -64 -5 -32 31 -39 74 -14 100 59 282 222 360 324 29 36
53 57 65 57 20 0 20 -1 -2 -32 -38 -55 -179 -196 -274 -276 -130 -109 -167
-143 -161 -149 7 -8 110 51 186 107 75 56 217 199 279 281 l42 57 -3 103 -3
103 -73 -80z"/>
<path d="M2400 1280 c0 -23 25 -27 33 -6 7 16 -1 26 -20 26 -7 0 -13 -9 -13
-20z"/>
<path d="M3665 1284 c-120 -44 -225 -118 -272 -191 -42 -67 -52 -113 -28 -133
16 -13 19 -13 29 4 38 63 78 106 173 184 126 102 153 127 153 142 0 13 -5 12
-55 -6z"/>
<path d="M3454 1259 c-81 -51 -134 -99 -134 -121 0 -11 4 -18 9 -16 10 4 186
168 179 168 -2 0 -26 -14 -54 -31z"/>
<path d="M522 1264 c-12 -8 -22 -26 -22 -38 0 -34 24 -49 65 -42 60 12 104
-22 125 -95 16 -55 -23 -135 -91 -185 -36 -27 -100 -32 -143 -13 -33 15 -67 5
-105 -30 -20 -19 -29 -35 -25 -46 4 -9 -2 -25 -14 -38 -11 -12 -27 -37 -37
-55 -13 -26 -34 -42 -92 -70 -87 -41 -82 -55 8 -22 62 24 131 77 168 132 l23
33 116 0 c108 0 121 2 175 28 68 34 98 70 126 154 37 111 27 158 -52 230 -68
63 -177 91 -225 57z"/>
<path d="M2123 1254 c-3 -8 2 -23 11 -32 15 -15 17 -15 32 0 21 21 11 48 -16
48 -11 0 -23 -7 -27 -16z"/>
<path d="M1408 1195 c-94 -48 -134 -75 -112 -75 12 0 198 101 214 116 21 21
15 18 -102 -41z"/>
<path d="M2776 1237 c-26 -19 -24 -67 4 -89 23 -18 51 -17 78 4 15 13 16 70 0
86 -16 16 -60 15 -82 -1z"/>
<path d="M3194 1219 c-3 -6 -1 -16 5 -22 8 -8 11 -5 11 11 0 24 -5 28 -16 11z"/>
<path d="M2317 1189 c-61 -32 -201 -180 -231 -243 -31 -65 -33 -86 -7 -86 13
0 53 44 120 133 55 72 117 151 137 175 41 47 37 51 -19 21z"/>
<path d="M4787 1192 c-23 -25 -21 -45 4 -68 19 -17 23 -17 47 -3 33 18 39 44
16 70 -22 24 -46 24 -67 1z"/>
<path d="M2390 1188 c0 -7 -25 -44 -56 -83 -49 -62 -99 -122 -332 -402 -29
-34 -48 -63 -43 -63 25 0 118 90 180 173 37 51 100 129 139 175 117 136 149
190 122 207 -5 3 -10 0 -10 -7z"/>
<path d="M2001 1164 c-24 -30 -25 -38 -10 -65 21 -41 86 -44 111 -5 12 17 9
71 -4 84 -22 22 -75 14 -97 -14z"/>
<path d="M3026 1140 c-62 -57 -89 -126 -84 -208 4 -58 8 -68 36 -93 74 -66
173 -14 221 116 47 124 6 225 -91 225 -31 0 -47 -8 -82 -40z"/>
<path d="M77 1119 c-73 -53 -80 -64 -75 -102 3 -22 10 -16 77 60 40 46 72 86
69 88 -2 2 -34 -19 -71 -46z"/>
<path d="M1169 1152 c-15 -9 -37 -30 -51 -47 -55 -66 -211 -292 -229 -330 -11
-22 -33 -49 -49 -58 -80 -48 -116 -105 -74 -121 21 -8 17 -10 66 30 23 20 88
66 143 101 55 36 111 75 124 87 65 58 154 208 166 276 12 70 -37 102 -96 62z
m75 -84 c-3 -13 -35 -65 -71 -115 -44 -64 -70 -93 -83 -93 -27 0 -26 30 2 66
22 30 150 164 156 164 2 0 0 -10 -4 -22z"/>
<path d="M372 1075 c-28 -30 -72 -90 -97 -132 -67 -110 -133 -189 -209 -252
-47 -39 -66 -61 -66 -78 0 -21 15 -11 118 75 133 114 181 162 276 281 75 93
92 122 83 145 -13 33 -54 18 -105 -39z"/>
<path d="M2897 1124 c-4 -4 -7 -16 -7 -26 0 -14 6 -19 23 -16 14 2 22 10 22
23 0 20 -25 32 -38 19z"/>
<path d="M540 1112 c0 -5 11 -19 25 -32 31 -29 32 -66 3 -97 -17 -19 -19 -23
-5 -23 20 0 57 51 57 80 0 12 -13 35 -29 51 -29 28 -51 37 -51 21z"/>
<path d="M976 1095 c-9 -14 -23 -25 -30 -25 -7 0 -19 -6 -25 -14 -10 -11 -8
-17 6 -25 17 -9 16 -13 -12 -65 -30 -56 -30 -56 -41 -30 l-11 27 -37 -61 c-36
-59 -44 -86 -28 -96 11 -7 82 68 110 114 21 35 93 200 87 200 -1 0 -10 -11
-19 -25z"/>
<path d="M2700 1045 c-41 -25 -151 -91 -243 -146 -92 -56 -166 -106 -164 -112
2 -7 21 -10 47 -8 40 3 43 1 30 -14 -19 -23 -219 -141 -309 -181 -41 -19 -71
-37 -68 -40 10 -11 196 77 335 159 75 44 191 104 258 133 174 75 239 110 263
140 26 34 26 54 0 88 -29 37 -63 33 -149 -19z"/>
<path d="M2482 1043 c4 -21 33 -25 33 -3 0 8 -8 16 -18 18 -14 3 -18 -1 -15
-15z"/>
<path d="M104 995 c-4 -9 -2 -21 4 -27 15 -15 44 -1 40 19 -4 23 -36 29 -44 8z"/>
<path d="M2333 961 c-62 -49 -143 -136 -143 -154 0 -22 11 -27 34 -15 31 16
186 169 186 184 0 27 -32 21 -77 -15z"/>
<path d="M460 975 c-7 -8 -8 -15 -2 -15 5 0 15 7 22 15 7 8 8 15 2 15 -5 0
-15 -7 -22 -15z"/>
<path d="M1967 979 c-10 -6 -35 -46 -57 -90 -52 -103 -90 -143 -219 -236 -115
-82 -191 -150 -191 -170 0 -7 28 9 63 35 34 27 96 72 137 99 93 63 150 117
186 179 21 36 30 44 32 30 5 -25 -25 -101 -54 -136 -27 -31 -139 -112 -241
-174 -79 -47 -83 -67 -5 -24 295 164 300 169 360 323 23 58 42 116 42 130 0
29 -28 47 -53 34z"/>
<path d="M5045 934 c-33 -31 -107 -91 -165 -134 -167 -125 -158 -117 -136
-126 45 -17 163 55 283 172 70 69 93 98 93 118 0 14 -3 26 -7 26 -5 -1 -35
-26 -68 -56z"/>
<path d="M227 966 c-4 -10 -7 -25 -6 -34 0 -11 4 -9 10 7 5 13 8 29 6 35 -2 5
-6 2 -10 -8z"/>
<path d="M3276 910 c-22 -56 -21 -113 3 -134 25 -23 38 -14 62 38 24 52 24 98
1 119 -30 27 -49 20 -66 -23z"/>
<path d="M1671 904 c-18 -14 -60 -70 -95 -123 -128 -192 -240 -318 -366 -412
-19 -15 -88 -80 -153 -144 -108 -108 -131 -142 -102 -152 6 -2 62 55 124 127
63 72 127 142 144 156 l31 26 18 -24 18 -23 134 140 c73 77 179 178 234 224
106 88 137 132 126 176 -7 28 -39 55 -65 55 -10 0 -31 -12 -48 -26z"/>
<path d="M0 886 c0 -14 5 -26 10 -26 6 0 10 9 10 19 0 11 -4 23 -10 26 -6 4
-10 -5 -10 -19z"/>
<path d="M50 854 c-47 -44 -50 -49 -50 -98 l0 -50 70 69 c55 55 70 75 68 95
-5 40 -33 35 -88 -16z"/>
<path d="M3559 879 c-39 -39 -69 -124 -87 -243 -18 -130 -14 -149 32 -128 32
14 50 50 97 191 45 131 47 153 19 181 -25 25 -35 25 -61 -1z"/>
<path d="M5069 822 c-59 -60 -101 -113 -95 -119 3 -3 35 18 71 47 67 54 76 56
49 15 -9 -14 -14 -34 -11 -44 6 -23 -19 -66 -78 -136 -23 -27 -74 -98 -114
-157 -40 -59 -106 -146 -148 -193 -154 -176 -9 -101 193 100 93 93 128 135
153 185 l32 65 -21 17 -22 18 21 33 c17 28 21 49 20 126 0 50 -1 91 -2 90 -1
0 -23 -22 -48 -47z"/>
<path d="M2810 845 c-16 -19 -5 -47 17 -43 22 4 29 43 9 51 -8 3 -20 -1 -26
-8z"/>
<path d="M1395 783 c-188 -87 -362 -210 -400 -283 -7 -14 -29 -35 -49 -45 -32
-17 -40 -18 -86 -6 -41 10 -54 11 -66 0 -22 -18 -13 -59 17 -81 39 -29 89 -11
170 60 36 32 119 95 185 140 170 116 163 110 140 127 -16 13 -7 19 103 74 108
54 138 73 114 70 -5 0 -62 -26 -128 -56z"/>
<path d="M2707 823 c-11 -10 -8 -41 4 -49 16 -9 41 20 33 39 -6 17 -25 22 -37
10z"/>
<path d="M3135 777 c-56 -31 -105 -107 -105 -162 0 -62 21 -65 82 -10 38 34
58 45 82 45 48 0 69 50 45 103 -6 14 -22 30 -36 36 -29 13 -21 15 -68 -12z"/>
<path d="M609 727 c-215 -72 -339 -163 -454 -336 -85 -128 -157 -295 -153
-353 l4 -43 27 57 c144 308 155 326 239 414 127 132 232 198 415 258 50 17 92
47 62 45 -8 0 -71 -19 -140 -42z"/>
<path d="M2169 726 c-47 -18 -90 -36 -97 -40 -16 -10 -15 -31 3 -46 11 -9 24
-6 65 16 55 30 128 89 120 97 -3 2 -43 -10 -91 -27z"/>
<path d="M3413 734 c-3 -8 -1 -20 5 -26 15 -15 43 8 35 28 -7 19 -32 18 -40
-2z"/>
<path d="M421 705 c-24 -19 -38 -35 -30 -35 16 0 99 69 84 70 -5 0 -30 -16
-54 -35z"/>
<path d="M2810 728 c-30 -5 -75 -7 -101 -4 -25 2 -51 1 -59 -4 -45 -28 65 -68
135 -49 29 8 44 8 62 -2 34 -18 78 6 78 41 0 21 -5 25 -30 27 -16 0 -55 -3
-85 -9z"/>
<path d="M4450 726 c-27 -33 18 -72 48 -42 13 13 14 20 6 34 -15 23 -38 26
-54 8z"/>
<path d="M2368 632 c-442 -228 -460 -239 -473 -294 -12 -46 17 -45 104 6 180
104 303 156 399 171 52 8 101 48 138 111 56 95 8 97 -168 6z"/>
<path d="M3321 666 c-6 -8 -14 -36 -18 -63 -4 -39 -2 -53 12 -67 23 -23 29
-15 13 18 -9 22 -9 37 0 73 14 50 11 61 -7 39z"/>
<path d="M4653 654 c-47 -27 -52 -38 -26 -53 25 -14 92 34 93 67 0 18 -21 14
-67 -14z"/>
<path d="M1335 641 c-11 -35 -88 -94 -189 -145 -160 -81 -224 -144 -241 -238
-7 -38 0 -78 14 -78 5 0 26 30 47 67 55 93 163 205 265 273 62 42 91 69 103
95 10 20 15 39 13 42 -3 2 -8 -5 -12 -16z"/>
<path d="M3910 575 c-172 -87 -262 -124 -267 -108 -3 7 -22 -1 -49 -19 -48
-32 -53 -54 -10 -51 25 2 429 205 471 237 41 31 -4 13 -145 -59z"/>
<path d="M667 634 c-15 -15 -7 -45 11 -42 9 2 17 12 17 22 0 20 -16 31 -28 20z"/>
<path d="M4285 629 c-73 -17 -259 -81 -335 -116 -116 -53 -270 -144 -270 -159
0 -23 22 -16 97 31 133 82 278 147 486 214 37 13 67 27 67 32 0 5 -1 9 -2 8
-2 -1 -21 -5 -43 -10z"/>
<path d="M4456 605 c-19 -20 -20 -26 -3 -49 26 -36 84 4 61 42 -15 23 -38 26
-58 7z"/>
<path d="M492 597 c-7 -8 -7 -18 -2 -27 8 -13 11 -13 26 2 9 9 13 21 10 27 -9
15 -21 14 -34 -2z"/>
<path d="M2695 581 c-228 -68 -579 -220 -725 -315 -68 -44 -312 -242 -318
-257 -2 -5 17 -9 43 -9 34 0 55 7 78 24 18 14 86 50 151 80 66 31 174 87 240
125 195 112 280 148 430 186 76 19 158 44 182 56 62 30 106 73 102 101 -3 21
-9 23 -63 25 -34 1 -86 -6 -120 -16z"/>
<path d="M4704 545 c-30 -33 -75 -101 -108 -163 -31 -59 -94 -165 -141 -237
-46 -72 -84 -134 -85 -138 0 -5 19 -7 41 -5 40 3 44 7 95 81 36 53 62 108 84
175 35 107 103 242 151 303 45 58 23 47 -37 -16z"/>
<path d="M220 570 c0 -5 5 -10 10 -10 6 0 10 5 10 10 0 6 -4 10 -10 10 -5 0
-10 -4 -10 -10z"/>
<path d="M1678 500 c-253 -125 -315 -167 -492 -330 -55 -50 -119 -103 -144
-117 -39 -23 -42 -28 -26 -34 54 -21 72 -12 165 85 152 160 340 294 469 337
78 26 189 86 197 106 14 36 -23 26 -169 -47z"/>
<path d="M3134 538 c-34 -32 -44 -47 -42 -67 4 -38 57 -41 108 -7 47 31 57 58
36 91 -23 35 -50 31 -102 -17z"/>
<path d="M4155 519 c-160 -59 -371 -156 -362 -165 3 -3 47 11 98 31 52 20 150
57 219 82 131 47 214 86 225 103 11 17 -15 10 -180 -51z"/>
<path d="M0 462 c0 -106 1 -112 18 -103 35 18 45 40 39 78 -5 31 -2 42 19 64
27 28 18 48 -13 30 -14 -8 -23 -4 -40 17 l-22 27 -1 -113z"/>
<path d="M4370 540 c0 -13 5 -20 13 -17 6 2 12 10 12 17 0 7 -6 15 -12 18 -8
2 -13 -5 -13 -18z"/>
<path d="M605 526 c-66 -19 -146 -54 -167 -73 -10 -9 -18 -24 -18 -35 0 -16
10 -13 78 21 80 42 175 71 225 71 17 0 58 -5 92 -11 34 -7 74 -9 89 -5 35 9
34 35 -1 35 -16 1 -77 3 -138 6 -78 3 -125 1 -160 -9z"/>
<path d="M1904 525 c-9 -23 4 -47 23 -43 11 2 19 14 21 31 3 22 -1 27 -18 27
-11 0 -23 -7 -26 -15z"/>
<path d="M2919 485 c-60 -49 -79 -73 -72 -90 10 -27 43 -16 94 32 33 31 49 53
47 67 -5 31 -22 29 -69 -9z"/>
<path d="M4772 456 c-22 -24 -51 -61 -65 -82 -28 -42 -50 -121 -37 -129 10 -6
75 82 85 115 7 25 28 65 60 113 27 42 2 32 -43 -17z"/>
<path d="M150 465 c-18 -21 -3 -32 16 -13 10 9 12 18 6 22 -5 3 -15 -1 -22 -9z"/>
<path d="M1659 337 c-86 -78 -172 -160 -191 -182 -50 -59 -108 -137 -108 -146
0 -5 13 -9 28 -9 24 0 34 10 74 78 26 42 63 96 83 120 41 47 235 208 235 194
0 -4 -13 -66 -30 -137 -16 -71 -28 -131 -25 -133 12 -12 27 18 51 96 14 48 39
122 55 165 52 140 24 132 -172 -46z"/>
<path d="M3207 438 c-32 -14 -47 -26 -45 -37 5 -27 31 -23 71 12 58 52 51 59
-26 25z"/>
<path d="M4476 444 c-19 -18 -19 -20 -6 -45 6 -10 17 -19 25 -19 15 0 45 26
45 40 0 11 -29 40 -40 40 -5 0 -16 -7 -24 -16z"/>
<path d="M612 425 c-93 -30 -168 -72 -262 -148 -120 -96 -160 -138 -191 -199
-37 -72 -37 -95 -2 -45 15 22 29 34 31 28 9 -26 34 -6 85 67 57 80 132 162
193 209 33 25 43 27 109 24 75 -2 117 10 144 43 11 13 11 19 1 31 -15 19 -18
18 -108 -10z"/>
<path d="M1161 440 c-19 -11 -9 -45 14 -45 13 0 21 8 23 21 3 23 -17 37 -37
24z"/>
<path d="M2936 377 c-79 -82 -122 -151 -132 -216 -10 -61 11 -51 40 19 30 74
67 130 132 201 30 32 54 61 54 64 0 19 -33 -5 -94 -68z"/>
<path d="M4324 425 c-29 -45 -3 -115 42 -115 56 0 50 100 -7 131 -15 7 -22 4
-35 -16z"/>
<path d="M1456 421 c-10 -10 -13 -22 -8 -25 12 -7 54 23 47 35 -9 14 -20 11
-39 -10z"/>
<path d="M4088 402 c-96 -39 -120 -62 -35 -33 64 22 113 47 122 61 8 13 14 15
-87 -28z"/>
<path d="M3310 393 c-26 -34 -230 -375 -230 -385 0 -5 25 -8 55 -8 48 0 57 3
64 23 5 12 35 60 66 106 103 153 134 230 110 268 -20 30 -39 29 -65 -4z"/>
<path d="M4198 399 c-18 -10 -25 -39 -10 -39 13 0 52 30 52 41 0 12 -20 11
-42 -2z"/>
<path d="M5018 261 c-54 -82 -98 -156 -98 -165 0 -35 34 -10 68 49 19 33 56
98 84 144 27 46 48 92 46 102 -2 12 -38 -35 -100 -130z"/>
<path d="M1598 382 c-94 -48 -290 -207 -391 -318 l-59 -64 61 0 c34 0 61 4 61
9 0 19 117 136 220 219 119 97 180 152 180 164 0 14 -34 9 -72 -10z"/>
<path d="M352 368 c6 -18 28 -21 28 -4 0 9 -7 16 -16 16 -9 0 -14 -5 -12 -12z"/>
<path d="M2650 349 c-65 -35 -81 -49 -58 -49 22 0 144 55 152 69 14 22 -39 10
-94 -20z"/>
<path d="M3017 373 c-13 -13 -7 -54 9 -60 24 -9 46 24 33 48 -10 19 -30 25
-42 12z"/>
<path d="M2519 350 c-37 -11 -217 -102 -281 -143 -61 -38 -138 -129 -138 -161
0 -15 30 -4 40 14 5 10 50 54 99 97 65 57 117 92 197 132 60 30 111 56 113 58
10 8 -6 9 -30 3z"/>
<path d="M2723 297 c-45 -34 -150 -115 -233 -179 l-152 -118 42 0 c39 0 52 8
154 93 188 158 247 199 263 185 17 -14 33 4 33 38 0 50 -23 45 -107 -19z"/>
<path d="M3458 331 c-24 -19 -128 -164 -196 -273 -30 -49 -31 -53 -13 -56 13
-2 46 22 102 77 64 61 88 79 104 75 28 -7 49 19 70 82 23 71 18 108 -16 112
-14 2 -36 -6 -51 -17z"/>
<path d="M220 325 c-16 -20 -6 -45 19 -45 25 0 34 14 26 40 -8 24 -28 26 -45
5z"/>
<path d="M3924 310 c-194 -50 -386 -149 -487 -253 l-51 -52 36 -3 c31 -3 42 4
95 56 68 66 228 154 388 213 50 18 94 36 98 40 20 16 -13 16 -79 -1z"/>
<path d="M515 286 c-21 -21 -25 -35 -25 -83 0 -120 35 -183 101 -183 31 0 46
8 79 38 35 34 40 44 40 83 0 73 -62 144 -143 163 -21 5 -33 1 -52 -18z"/>
<path d="M4042 278 c-26 -28 -62 -93 -62 -113 0 -3 11 -10 24 -15 38 -14 124
17 142 52 46 89 -34 148 -104 76z"/>
<path d="M4250 288 c-70 -48 -95 -124 -55 -168 23 -26 45 -25 80 2 l28 22 -7
-45 c-4 -24 -9 -54 -13 -66 -3 -13 -1 -23 3 -23 11 0 71 152 80 202 5 33 2 41
-24 68 -36 36 -49 37 -92 8z"/>
<path d="M787 294 c-13 -13 -7 -55 9 -61 24 -9 51 23 38 45 -12 19 -36 27 -47
16z"/>
<path d="M7 283 c-4 -3 -7 -15 -7 -25 0 -26 24 -17 28 10 3 21 -8 29 -21 15z"/>
<path d="M2393 198 c-54 -51 -125 -116 -158 -145 l-60 -52 39 -1 c35 0 51 10
152 96 125 105 175 159 167 180 -11 30 -45 10 -140 -78z"/>
<path d="M2919 241 c-48 -48 -37 -119 21 -140 41 -14 75 0 100 41 25 42 25 69
-1 102 -29 37 -81 36 -120 -3z"/>
<path d="M5047 164 c-37 -55 -79 -114 -93 -132 l-27 -32 27 0 c20 0 36 13 72
63 70 96 96 143 92 173 -3 23 -11 15 -71 -72z"/>
<path d="M3098 187 c-21 -34 -56 -90 -78 -125 -23 -35 -35 -62 -28 -62 11 0
35 36 138 213 12 20 18 37 13 37 -4 0 -25 -28 -45 -63z"/>
<path d="M3867 216 c-64 -26 -97 -51 -97 -73 0 -15 19 -17 54 -4 l24 10 -24
-71 c-29 -85 -28 -78 -6 -78 14 0 23 14 35 60 10 33 17 68 17 77 0 10 18 31
40 46 39 27 53 57 28 57 -7 0 -39 -11 -71 -24z"/>
<path d="M377 213 c-13 -12 -7 -50 9 -64 14 -11 19 -10 35 10 14 17 16 27 9
42 -10 19 -40 26 -53 12z"/>
<path d="M4863 163 c-18 -7 -16 -42 2 -49 24 -10 47 14 34 37 -10 19 -15 21
-36 12z"/>
<path d="M825 108 c4 -24 13 -58 21 -75 11 -28 18 -33 48 -33 l34 0 -20 53
c-21 56 -53 97 -76 97 -11 0 -12 -9 -7 -42z"/>
<path d="M2650 119 c-24 -18 -68 -52 -97 -75 l-54 -44 64 0 c44 0 68 5 77 14
6 8 34 29 61 46 49 32 60 55 37 78 -19 19 -42 14 -88 -19z"/>
<path d="M749 84 c-9 -27 -19 -57 -23 -66 -6 -14 -3 -18 13 -18 28 0 33 15 29
81 l-3 53 -16 -50z"/>
<path d="M4077 119 c-21 -12 -47 -67 -47 -99 0 -17 6 -20 50 -20 45 0 51 3 65
30 18 35 19 51 3 72 -18 22 -49 29 -71 17z"/>
<path d="M1554 105 c-4 -9 -2 -21 4 -27 15 -15 44 -1 40 19 -4 23 -36 29 -44
8z"/>
<path d="M2051 103 c-14 -28 -17 -86 -5 -90 10 -3 44 74 44 99 0 15 -29 8 -39
-9z"/>
<path d="M4564 78 c-25 -23 -50 -50 -55 -60 -9 -16 -5 -18 39 -18 45 0 49 2
65 35 19 40 22 85 7 85 -6 0 -31 -19 -56 -42z"/>
<path d="M5071 50 l-42 -50 45 0 46 0 0 50 c0 28 -2 50 -3 50 -2 0 -23 -22
-46 -50z"/>
<path d="M3603 71 c-35 -17 -63 -45 -63 -65 0 -3 41 -6 90 -6 82 0 90 2 90 19
0 24 -29 58 -55 65 -11 3 -39 -3 -62 -13z"/>
<path d="M3927 62 c-26 -29 -22 -62 7 -62 32 0 71 47 55 66 -16 19 -43 17 -62
-4z"/>
<path d="M265 27 l-40 -22 47 -3 c26 -2 71 -2 100 0 l53 3 -35 22 c-44 28 -74
28 -125 0z"/>
<path d="M1879 20 l-24 -19 36 -1 c40 0 50 6 42 26 -7 19 -27 17 -54 -6z"/>
<path d="M4685 20 c-18 -20 -17 -20 38 -20 42 0 57 4 57 14 0 31 -69 35 -95 6z"/>
<path d="M2920 15 c-11 -13 -8 -15 14 -15 16 0 26 5 26 15 0 8 -6 15 -14 15
-7 0 -19 -7 -26 -15z"/>
<path d="M2705 10 c-15 -7 -10 -9 23 -9 26 -1 41 3 37 9 -7 12 -32 12 -60 0z"/>
</g>
</svg>