<svg height="200px" width="200px" version="1.1" id="Layer_1" xmlns="http://www.w3.org/2000/svg" xmlns:xlink="http://www.w3.org/1999/xlink" viewBox="0 0 503.284 503.284" xml:space="preserve" fill="#000000"><g id="SVGRepo_bgCarrier" stroke-width="0"></g><g id="SVGRepo_tracerCarrier" stroke-linecap="round" stroke-linejoin="round"></g><g id="SVGRepo_iconCarrier"> <g> <path style="fill:#f4305c;" d="M325.784,74.142c-33.67,0-66.443,9.476-94.775,27.403c-27.546,17.429-49.763,42.048-64.25,71.196 l35.82,17.803c23.422-47.126,70.632-76.401,123.205-76.401c75.817,0,137.5,61.682,137.5,137.5s-61.683,137.5-137.5,137.5 c-52.573,0-99.783-29.275-123.205-76.401l-35.82,17.803c14.487,29.147,36.704,53.767,64.25,71.196 c28.332,17.927,61.105,27.403,94.775,27.403c97.874,0,177.5-79.626,177.5-177.5S423.658,74.142,325.784,74.142z"></path> <polygon style="fill:#efba46;" points="325.784,271.642 325.784,231.642 76.569,231.642 102.427,205.784 74.142,177.5 0,251.643 74.143,325.784 102.426,297.5 76.568,271.642 "></polygon> </g> </g></svg>