<svg viewBox="0 0 1024 1024" class="icon" version="1.1" xmlns="http://www.w3.org/2000/svg" fill="#000000"><g id="SVGRepo_bgCarrier" stroke-width="0"></g><g id="SVGRepo_tracerCarrier" stroke-linecap="round" stroke-linejoin="round"></g><g id="SVGRepo_iconCarrier"><path d="M512 85.333333c-117.333333 0-213.333333 96-213.333333 213.333334v85.333333h85.333333v-85.333333c0-70.4 57.6-128 128-128s128 57.6 128 128v85.333333h85.333333v-85.333333c0-117.333333-96-213.333333-213.333333-213.333334z" fill="#424242"></path><path d="M768 938.666667H256c-46.933333 0-85.333333-38.4-85.333333-85.333334V469.333333c0-46.933333 38.4-85.333333 85.333333-85.333333h512c46.933333 0 85.333333 38.4 85.333333 85.333333v384c0 46.933333-38.4 85.333333-85.333333 85.333334z" fill="#FB8C00"></path><path d="M512 661.333333m-128 0a128 128 0 1 0 256 0 128 128 0 1 0-256 0Z" fill="#EFEBE9"></path><path d="M512 661.333333m-64 0a64 64 0 1 0 128 0 64 64 0 1 0-128 0Z" fill="#1E88E5"></path><path d="M554.666667 618.666667m-21.333334 0a21.333333 21.333333 0 1 0 42.666667 0 21.333333 21.333333 0 1 0-42.666667 0Z" fill="#FFFFFF"></path></g></svg>