<svg height="102px" width="102px" version="1.1" id="Capa_1" xmlns="http://www.w3.org/2000/svg" xmlns:xlink="http://www.w3.org/1999/xlink" viewBox="0 0 251.496 251.496" xml:space="preserve" fill="#000000" stroke="#000000" stroke-width="0.00251496" transform="rotate(0)"><g id="SVGRepo_bgCarrier" stroke-width="0"></g><g id="SVGRepo_tracerCarrier" stroke-linecap="round" stroke-linejoin="round" stroke="#000000" stroke-width="0.5029920000000001"></g><g id="SVGRepo_iconCarrier"> <path style="fill:#dbdbdb;" d="M243.996,0H127.5c-4.143,0-7.5,3.358-7.5,7.5v20c0,4.142,3.357,7.5,7.5,7.5h64.246L35,191.746 v-64.245c0-4.142-3.358-7.5-7.5-7.5h-20c-4.143,0-7.5,3.358-7.5,7.5v116.494c0,4.142,3.357,7.5,7.5,7.5h116.496 c4.143,0,7.5-3.358,7.5-7.5v-20c0-4.142-3.357-7.5-7.5-7.5H59.75L216.496,59.749v64.246c0,4.142,3.357,7.5,7.5,7.5h20 c4.143,0,7.5-3.358,7.5-7.5V7.5C251.496,3.358,248.139,0,243.996,0z"></path> </g></svg>